<svg aria-hidden="true" style="position: absolute; width: 0; height: 0; overflow: hidden;" version="1.1" xmlns="http://www.w3.org/2000/svg" xmlns:xlink="http://www.w3.org/1999/xlink">
<defs>
<!-- Alerts icons -->
<symbol id="icon-info-circle" viewBox="0 0 32 32">
<path d="M16 30c-3.713 0-7.274-1.475-9.899-4.1s-4.101-6.187-4.101-9.9c0-3.713 1.475-7.274 4.101-9.899s6.186-4.101 9.899-4.101c3.713 0 7.274 1.475 9.9 4.101s4.1 6.186 4.1 9.899c0 3.713-1.475 7.274-4.1 9.9s-6.187 4.1-9.9 4.1zM16 32c4.244 0 8.313-1.686 11.314-4.686s4.686-7.070 4.686-11.314c0-4.243-1.686-8.313-4.686-11.314s-7.070-4.686-11.314-4.686c-4.243 0-8.313 1.686-11.314 4.686s-4.686 7.070-4.686 11.314c0 4.244 1.686 8.313 4.686 11.314s7.070 4.686 11.314 4.686z"></path>
<path d="M17.86 13.176l-4.58 0.574-0.164 0.76 0.9 0.166c0.588 0.14 0.704 0.352 0.576 0.938l-1.476 6.936c-0.388 1.794 0.21 2.638 1.616 2.638 1.090 0 2.356-0.504 2.93-1.196l0.176-0.832c-0.4 0.352-0.984 0.492-1.372 0.492-0.55 0-0.75-0.386-0.608-1.066l2.002-9.41zM18 9c0 0.53-0.211 1.039-0.586 1.414s-0.884 0.586-1.414 0.586c-0.53 0-1.039-0.211-1.414-0.586s-0.586-0.884-0.586-1.414c0-0.53 0.211-1.039 0.586-1.414s0.884-0.586 1.414-0.586c0.53 0 1.039 0.211 1.414 0.586s0.586 0.884 0.586 1.414z"></path>
</symbol>
<symbol id="icon-exclamation-triangle" viewBox="0 0 32 32">
<path d="M15.876 4.032c0.039-0.021 0.083-0.033 0.128-0.032s0.087 0.011 0.126 0.032c0.046 0.027 0.083 0.067 0.108 0.114l13.714 23.334c0.072 0.12 0.070 0.248 0.004 0.366-0.025 0.048-0.063 0.090-0.108 0.12-0.040 0.024-0.086 0.036-0.132 0.034h-27.424c-0.046 0.002-0.092-0.010-0.132-0.034-0.046-0.030-0.083-0.072-0.108-0.12-0.033-0.056-0.050-0.119-0.049-0.184s0.019-0.128 0.053-0.182l13.712-23.334c0.025-0.047 0.062-0.087 0.108-0.114zM17.964 3.132c-0.198-0.345-0.483-0.631-0.828-0.831s-0.735-0.304-1.132-0.304c-0.398 0-0.788 0.105-1.132 0.304s-0.63 0.486-0.828 0.831l-13.714 23.334c-0.914 1.556 0.182 3.534 1.96 3.534h27.426c1.778 0 2.876-1.98 1.96-3.534l-13.712-23.334z"></path>
<path d="M14.004 24c0-0.263 0.052-0.523 0.152-0.765s0.248-0.463 0.434-0.649c0.186-0.186 0.406-0.333 0.649-0.433s0.503-0.152 0.765-0.152c0.263 0 0.523 0.052 0.765 0.152s0.463 0.248 0.649 0.433c0.186 0.186 0.333 0.406 0.434 0.649s0.152 0.503 0.152 0.765c0 0.53-0.211 1.039-0.586 1.414s-0.884 0.586-1.414 0.586c-0.53 0-1.039-0.211-1.414-0.586s-0.586-0.884-0.586-1.414zM14.2 11.99c-0.027-0.252 0-0.507 0.078-0.749s0.207-0.463 0.376-0.652c0.17-0.189 0.377-0.339 0.609-0.443s0.483-0.157 0.736-0.157c0.254 0 0.505 0.053 0.736 0.157s0.439 0.254 0.609 0.443 0.298 0.411 0.376 0.652c0.078 0.241 0.105 0.496 0.078 0.749l-0.7 7.014c-0.024 0.276-0.15 0.532-0.353 0.719s-0.47 0.291-0.747 0.291c-0.277 0-0.543-0.104-0.747-0.291s-0.33-0.444-0.353-0.719l-0.7-7.014z"></path>
</symbol>
<symbol id="icon-x-octagon" viewBox="0 0 32 32">
<path d="M9.080 0.292c0.187-0.187 0.441-0.292 0.706-0.292h12.428c0.265 0 0.519 0.105 0.706 0.292l8.788 8.788c0.187 0.187 0.292 0.441 0.292 0.706v12.428c0 0.265-0.105 0.519-0.292 0.706l-8.788 8.788c-0.187 0.187-0.441 0.292-0.706 0.292h-12.428c-0.265 0-0.519-0.105-0.706-0.292l-8.788-8.788c-0.187-0.187-0.292-0.441-0.292-0.706v-12.428c0-0.265 0.105-0.519 0.292-0.706l8.788-8.788zM10.2 2l-8.2 8.2v11.6l8.2 8.2h11.6l8.2-8.2v-11.6l-8.2-8.2h-11.6z"></path>
<path d="M9.292 9.292c0.093-0.093 0.203-0.167 0.325-0.217s0.252-0.076 0.383-0.076c0.132 0 0.262 0.026 0.383 0.076s0.232 0.124 0.325 0.217l5.292 5.294 5.292-5.294c0.093-0.093 0.203-0.167 0.325-0.217s0.252-0.076 0.383-0.076c0.132 0 0.262 0.026 0.383 0.076s0.232 0.124 0.325 0.217c0.093 0.093 0.167 0.203 0.217 0.325s0.076 0.252 0.076 0.383-0.026 0.262-0.076 0.383c-0.050 0.121-0.124 0.232-0.217 0.325l-5.294 5.292 5.294 5.292c0.093 0.093 0.167 0.203 0.217 0.325s0.076 0.252 0.076 0.383-0.026 0.262-0.076 0.383c-0.050 0.121-0.124 0.232-0.217 0.325s-0.203 0.167-0.325 0.217c-0.121 0.050-0.252 0.076-0.383 0.076s-0.262-0.026-0.383-0.076c-0.122-0.050-0.232-0.124-0.325-0.217l-5.292-5.294-5.292 5.294c-0.093 0.093-0.203 0.167-0.325 0.217s-0.252 0.076-0.383 0.076-0.262-0.026-0.383-0.076c-0.121-0.050-0.232-0.124-0.325-0.217s-0.167-0.203-0.217-0.325c-0.050-0.122-0.076-0.252-0.076-0.383s0.026-0.262 0.076-0.383c0.050-0.121 0.124-0.232 0.217-0.325l5.294-5.292-5.294-5.292c-0.093-0.093-0.167-0.203-0.217-0.325s-0.076-0.252-0.076-0.383c0-0.132 0.026-0.262 0.076-0.383s0.124-0.232 0.217-0.325z"></path>
</symbol>
<symbol id="icon-check-circle" viewBox="0 0 32 32">
<path d="M5 16c-0-1.931 0.508-3.828 1.473-5.501s2.354-3.061 4.026-4.027c1.672-0.966 3.569-1.474 5.5-1.474s3.828 0.508 5.5 1.474c0.23 0.13 0.501 0.165 0.756 0.096s0.472-0.236 0.604-0.465c0.132-0.229 0.168-0.5 0.101-0.756s-0.233-0.474-0.461-0.607c-2.478-1.431-5.359-2.004-8.197-1.63s-5.472 1.673-7.495 3.696-3.323 4.658-3.697 7.495c-0.374 2.837 0.199 5.718 1.63 8.197s3.639 4.415 6.283 5.511c2.644 1.095 5.575 1.288 8.339 0.547s5.207-2.372 6.949-4.642c1.742-2.27 2.687-5.052 2.687-7.913 0-0.265-0.105-0.52-0.293-0.707s-0.442-0.293-0.707-0.293c-0.265 0-0.52 0.105-0.707 0.293s-0.293 0.442-0.293 0.707c0 2.917-1.159 5.715-3.222 7.778s-4.861 3.222-7.778 3.222c-2.917 0-5.715-1.159-7.778-3.222s-3.222-4.861-3.222-7.778z"></path>
<path d="M30.708 6.708c0.093-0.093 0.167-0.203 0.217-0.325s0.076-0.252 0.076-0.383-0.026-0.262-0.076-0.383c-0.050-0.122-0.124-0.232-0.217-0.325s-0.203-0.167-0.325-0.217c-0.121-0.050-0.252-0.076-0.383-0.076s-0.262 0.026-0.383 0.076c-0.121 0.050-0.232 0.124-0.325 0.217l-13.292 13.294-5.292-5.294c-0.093-0.093-0.203-0.167-0.325-0.217s-0.252-0.076-0.383-0.076c-0.132 0-0.262 0.026-0.383 0.076s-0.232 0.124-0.325 0.217c-0.093 0.093-0.167 0.203-0.217 0.325s-0.076 0.252-0.076 0.383c0 0.132 0.026 0.262 0.076 0.383s0.124 0.232 0.217 0.325l6 6c0.093 0.093 0.203 0.167 0.325 0.217s0.252 0.076 0.383 0.076c0.132 0 0.262-0.026 0.383-0.076s0.232-0.124 0.325-0.217l14-14z"></path>
</symbol>
<symbol id="icon-alert-gem" viewBox="0 0 32 32">
<path d="M6.2 1.4c0.093-0.124 0.214-0.225 0.353-0.294s0.292-0.106 0.447-0.106h18c0.155 0 0.308 0.036 0.447 0.106s0.26 0.17 0.353 0.294l5.952 7.948c0.298 0.37 0.312 0.9 0.020 1.288l-14.972 19.964c-0.093 0.124-0.214 0.225-0.353 0.294s-0.292 0.106-0.447 0.106c-0.155 0-0.308-0.036-0.447-0.106s-0.26-0.17-0.353-0.294l-15-20c-0.13-0.173-0.2-0.384-0.2-0.6s0.070-0.427 0.2-0.6l6-8zM28.972 8.97l-3.612-4.82-1.552 4.826 5.164-0.006zM21.706 8.978l1.922-5.978h-15.256l1.926 5.99 11.408-0.012zM10.94 10.99l5.060 15.742 5.064-15.752-10.124 0.010zM8.198 8.992l-1.56-4.844-3.636 4.85 5.196-0.006zM2.998 11l10.226 13.634-4.384-13.64-5.842 0.006zM18.776 24.634l10.246-13.66-5.856 0.004-4.39 13.656z"></path>
</symbol>
<!-- Aside menu icons -->
<symbol id="icon-gear" viewBox="0 0 32 32">
<path d="M16 9.508c-0.853 0-1.697 0.168-2.484 0.494s-1.503 0.804-2.106 1.407c-0.603 0.603-1.081 1.319-1.407 2.106s-0.494 1.632-0.494 2.484c0 0.853 0.168 1.697 0.494 2.484s0.804 1.503 1.407 2.106c0.603 0.603 1.319 1.081 2.106 1.407s1.632 0.494 2.484 0.494c1.722 0 3.373-0.684 4.591-1.901s1.901-2.869 1.901-4.591c0-1.722-0.684-3.373-1.901-4.591s-2.869-1.901-4.591-1.901zM11.508 16c0-1.191 0.473-2.334 1.316-3.176s1.985-1.316 3.176-1.316c1.191 0 2.334 0.473 3.176 1.316s1.316 1.985 1.316 3.176c0 1.191-0.473 2.334-1.316 3.176s-1.985 1.316-3.176 1.316c-1.191 0-2.334-0.473-3.176-1.316s-1.316-1.985-1.316-3.176z"></path>
<path d="M19.592 2.686c-1.054-3.58-6.13-3.58-7.184 0l-0.188 0.638c-0.074 0.25-0.202 0.48-0.376 0.674s-0.389 0.346-0.63 0.446c-0.241 0.1-0.501 0.144-0.761 0.131s-0.514-0.086-0.743-0.21l-0.584-0.32c-3.28-1.784-6.866 1.804-5.080 5.082l0.318 0.584c0.125 0.229 0.196 0.483 0.21 0.743s-0.031 0.52-0.131 0.761c-0.1 0.241-0.252 0.456-0.446 0.63s-0.424 0.303-0.674 0.376l-0.638 0.188c-3.58 1.054-3.58 6.13 0 7.184l0.638 0.188c0.25 0.074 0.48 0.202 0.674 0.376s0.346 0.389 0.446 0.63c0.1 0.241 0.144 0.501 0.131 0.761s-0.086 0.514-0.21 0.743l-0.32 0.584c-1.784 3.28 1.802 6.868 5.082 5.080l0.584-0.318c0.229-0.125 0.483-0.196 0.743-0.21s0.52 0.031 0.761 0.13c0.241 0.1 0.456 0.252 0.63 0.446s0.303 0.424 0.376 0.674l0.188 0.638c1.054 3.58 6.13 3.58 7.184 0l0.188-0.638c0.074-0.25 0.202-0.48 0.376-0.674s0.389-0.346 0.63-0.446c0.241-0.1 0.501-0.144 0.761-0.13s0.514 0.086 0.743 0.21l0.584 0.32c3.28 1.786 6.868-1.804 5.080-5.082l-0.318-0.584c-0.125-0.229-0.196-0.483-0.21-0.743s0.031-0.52 0.13-0.761c0.1-0.241 0.252-0.456 0.446-0.63s0.424-0.303 0.674-0.376l0.638-0.188c3.58-1.054 3.58-6.13 0-7.184l-0.638-0.188c-0.25-0.074-0.48-0.202-0.674-0.376s-0.346-0.389-0.446-0.63c-0.1-0.241-0.144-0.501-0.13-0.761s0.086-0.514 0.21-0.743l0.32-0.584c1.786-3.28-1.804-6.866-5.082-5.080l-0.584 0.318c-0.229 0.125-0.483 0.196-0.743 0.21s-0.52-0.031-0.761-0.131c-0.241-0.1-0.456-0.252-0.63-0.446s-0.303-0.424-0.376-0.674l-0.188-0.638zM14.326 3.252c0.492-1.67 2.856-1.67 3.348 0l0.188 0.638c0.158 0.536 0.434 1.030 0.808 1.446s0.836 0.742 1.352 0.956c0.516 0.214 1.074 0.309 1.632 0.28s1.103-0.184 1.593-0.452l0.582-0.32c1.528-0.83 3.2 0.84 2.368 2.37l-0.318 0.584c-0.267 0.491-0.421 1.035-0.451 1.593s0.066 1.116 0.28 1.632c0.214 0.516 0.541 0.978 0.956 1.352s0.91 0.649 1.446 0.807l0.636 0.188c1.67 0.492 1.67 2.856 0 3.348l-0.638 0.188c-0.536 0.158-1.030 0.434-1.446 0.808s-0.742 0.836-0.956 1.352c-0.214 0.516-0.309 1.074-0.28 1.632s0.184 1.103 0.452 1.593l0.32 0.582c0.83 1.528-0.84 3.2-2.37 2.368l-0.582-0.318c-0.491-0.268-1.036-0.422-1.594-0.451s-1.116 0.066-1.633 0.28c-0.516 0.214-0.978 0.541-1.352 0.957s-0.65 0.91-0.807 1.446l-0.188 0.636c-0.492 1.67-2.856 1.67-3.348 0l-0.188-0.638c-0.158-0.536-0.434-1.030-0.808-1.445s-0.835-0.742-1.352-0.956-1.074-0.309-1.632-0.28c-0.558 0.029-1.102 0.184-1.593 0.451l-0.584 0.32c-1.528 0.83-3.2-0.84-2.368-2.37l0.318-0.582c0.268-0.491 0.423-1.036 0.452-1.594s-0.066-1.116-0.279-1.633c-0.214-0.517-0.541-0.979-0.957-1.353s-0.91-0.65-1.447-0.808l-0.638-0.188c-1.67-0.492-1.67-2.856 0-3.348l0.638-0.188c0.536-0.158 1.029-0.434 1.444-0.808s0.742-0.835 0.955-1.351c0.214-0.516 0.309-1.073 0.28-1.631s-0.183-1.102-0.45-1.592l-0.32-0.584c-0.83-1.528 0.84-3.2 2.37-2.368l0.584 0.318c0.491 0.267 1.035 0.421 1.593 0.451s1.115-0.066 1.632-0.28c0.516-0.214 0.978-0.54 1.352-0.956s0.65-0.909 0.808-1.445l0.188-0.638z"></path>
</symbol>
<symbol id="icon-x-lg" viewBox="0 0 32 32">
<path d="M4.292 5.708c-0.093-0.093-0.167-0.203-0.217-0.325s-0.076-0.252-0.076-0.383c0-0.131 0.026-0.262 0.076-0.383s0.124-0.232 0.217-0.325c0.093-0.093 0.203-0.167 0.325-0.217s0.252-0.076 0.383-0.076c0.131 0 0.262 0.026 0.383 0.076s0.232 0.124 0.325 0.217l10.292 10.294 10.292-10.294c0.093-0.093 0.203-0.167 0.325-0.217s0.252-0.076 0.383-0.076 0.262 0.026 0.383 0.076c0.121 0.050 0.232 0.124 0.325 0.217s0.167 0.203 0.217 0.325c0.050 0.121 0.076 0.252 0.076 0.383s-0.026 0.262-0.076 0.383c-0.050 0.121-0.124 0.232-0.217 0.325l-10.294 10.292 10.294 10.292c0.093 0.093 0.167 0.203 0.217 0.325s0.076 0.252 0.076 0.383-0.026 0.262-0.076 0.383c-0.050 0.121-0.124 0.232-0.217 0.325s-0.203 0.167-0.325 0.217c-0.121 0.050-0.252 0.076-0.383 0.076s-0.262-0.026-0.383-0.076c-0.121-0.050-0.232-0.124-0.325-0.217l-10.292-10.294-10.292 10.294c-0.093 0.093-0.203 0.167-0.325 0.217s-0.252 0.076-0.383 0.076-0.262-0.026-0.383-0.076c-0.121-0.050-0.232-0.124-0.325-0.217s-0.167-0.203-0.217-0.325c-0.050-0.121-0.076-0.252-0.076-0.383s0.026-0.262 0.076-0.383c0.050-0.121 0.124-0.232 0.217-0.325l10.294-10.292-10.294-10.292z"></path>
</symbol>
<symbol id="icon-arrow-clockwise" viewBox="0 0 32 32">
<path d="M16 6c-2.161 0.001-4.264 0.702-5.994 1.998s-2.992 3.118-3.6 5.192c-0.607 2.074-0.526 4.289 0.231 6.314s2.15 3.749 3.97 4.915 3.968 1.712 6.124 1.555c2.156-0.157 4.202-1.008 5.833-2.426s2.759-3.326 3.215-5.439c0.456-2.113 0.215-4.316-0.687-6.28-0.098-0.239-0.1-0.506-0.006-0.747s0.279-0.435 0.513-0.542c0.235-0.108 0.502-0.121 0.746-0.036s0.445 0.261 0.563 0.491c1.082 2.357 1.371 5.001 0.824 7.537s-1.901 4.825-3.858 6.527c-1.958 1.701-4.414 2.723-7 2.911s-5.165-0.467-7.348-1.867c-2.183-1.4-3.854-3.469-4.763-5.899s-1.005-5.088-0.276-7.577 2.245-4.675 4.321-6.23c2.076-1.555 4.599-2.396 7.193-2.396v2z"></path>
<path d="M16 8.932v-7.864c0-0.095 0.027-0.188 0.078-0.268s0.124-0.144 0.21-0.184c0.086-0.040 0.182-0.055 0.276-0.043s0.183 0.051 0.256 0.112l4.72 3.932c0.24 0.2 0.24 0.568 0 0.768l-4.72 3.932c-0.073 0.061-0.162 0.1-0.256 0.112s-0.19-0.003-0.276-0.043c-0.086-0.040-0.159-0.104-0.21-0.184s-0.078-0.173-0.078-0.268z"></path>
</symbol>
<symbol id="icon-journal-text" viewBox="0 0 32 32">
<path d="M10 21c0-0.265 0.105-0.52 0.293-0.707s0.442-0.293 0.707-0.293h4c0.265 0 0.52 0.105 0.707 0.293s0.293 0.442 0.293 0.707-0.105 0.52-0.293 0.707c-0.188 0.188-0.442 0.293-0.707 0.293h-4c-0.265 0-0.52-0.105-0.707-0.293s-0.293-0.442-0.293-0.707zM10 17c0-0.265 0.105-0.52 0.293-0.707s0.442-0.293 0.707-0.293h10c0.265 0 0.52 0.105 0.707 0.293s0.293 0.442 0.293 0.707-0.105 0.52-0.293 0.707c-0.188 0.188-0.442 0.293-0.707 0.293h-10c-0.265 0-0.52-0.105-0.707-0.293s-0.293-0.442-0.293-0.707zM10 13c0-0.265 0.105-0.52 0.293-0.707s0.442-0.293 0.707-0.293h10c0.265 0 0.52 0.105 0.707 0.293s0.293 0.442 0.293 0.707-0.105 0.52-0.293 0.707c-0.188 0.188-0.442 0.293-0.707 0.293h-10c-0.265 0-0.52-0.105-0.707-0.293s-0.293-0.442-0.293-0.707zM10 9c0-0.265 0.105-0.52 0.293-0.707s0.442-0.293 0.707-0.293h10c0.265 0 0.52 0.105 0.707 0.293s0.293 0.442 0.293 0.707-0.105 0.52-0.293 0.707c-0.188 0.188-0.442 0.293-0.707 0.293h-10c-0.265 0-0.52-0.105-0.707-0.293s-0.293-0.442-0.293-0.707z"></path>
<path d="M6 0h20c1.061 0 2.078 0.421 2.828 1.172s1.172 1.768 1.172 2.828v24c0 1.061-0.421 2.078-1.172 2.828s-1.768 1.172-2.828 1.172h-20c-1.061 0-2.078-0.421-2.828-1.172s-1.172-1.768-1.172-2.828v-2h2v2c0 0.53 0.211 1.039 0.586 1.414s0.884 0.586 1.414 0.586h20c0.53 0 1.039-0.211 1.414-0.586s0.586-0.884 0.586-1.414v-24c0-0.53-0.211-1.039-0.586-1.414s-0.884-0.586-1.414-0.586h-20c-0.53 0-1.039 0.211-1.414 0.586s-0.586 0.884-0.586 1.414v2h-2v-2c0-1.061 0.421-2.078 1.172-2.828s1.768-1.172 2.828-1.172z"></path>
<path d="M2 10v-1c0-0.265 0.105-0.52 0.293-0.707s0.442-0.293 0.707-0.293c0.265 0 0.52 0.105 0.707 0.293s0.293 0.442 0.293 0.707v1h1c0.265 0 0.52 0.105 0.707 0.293s0.293 0.442 0.293 0.707c0 0.265-0.105 0.52-0.293 0.707s-0.442 0.293-0.707 0.293h-4c-0.265 0-0.52-0.105-0.707-0.293s-0.293-0.442-0.293-0.707c0-0.265 0.105-0.52 0.293-0.707s0.442-0.293 0.707-0.293h1zM2 16v-1c0-0.265 0.105-0.52 0.293-0.707s0.442-0.293 0.707-0.293c0.265 0 0.52 0.105 0.707 0.293s0.293 0.442 0.293 0.707v1h1c0.265 0 0.52 0.105 0.707 0.293s0.293 0.442 0.293 0.707-0.105 0.52-0.293 0.707c-0.188 0.188-0.442 0.293-0.707 0.293h-4c-0.265 0-0.52-0.105-0.707-0.293s-0.293-0.442-0.293-0.707 0.105-0.52 0.293-0.707c0.188-0.188 0.442-0.293 0.707-0.293h1zM2 22v-1c0-0.265 0.105-0.52 0.293-0.707s0.442-0.293 0.707-0.293 0.52 0.105 0.707 0.293c0.188 0.188 0.293 0.442 0.293 0.707v1h1c0.265 0 0.52 0.105 0.707 0.293s0.293 0.442 0.293 0.707-0.105 0.52-0.293 0.707c-0.188 0.188-0.442 0.293-0.707 0.293h-4c-0.265 0-0.52-0.105-0.707-0.293s-0.293-0.442-0.293-0.707 0.105-0.52 0.293-0.707c0.188-0.188 0.442-0.293 0.707-0.293h1z"></path>
</symbol>
<symbol id="icon-calendar-range" viewBox="0 0 32 32">
<path d="M7 0c0.265 0 0.52 0.105 0.707 0.293s0.293 0.442 0.293 0.707v1h16v-1c0-0.265 0.105-0.52 0.293-0.707s0.442-0.293 0.707-0.293 0.52 0.105 0.707 0.293c0.188 0.188 0.293 0.442 0.293 0.707v1h2c1.061 0 2.078 0.421 2.828 1.172s1.172 1.768 1.172 2.828v22c0 1.061-0.421 2.078-1.172 2.828s-1.768 1.172-2.828 1.172h-24c-1.061 0-2.078-0.421-2.828-1.172s-1.172-1.768-1.172-2.828v-22c0-1.061 0.421-2.078 1.172-2.828s1.768-1.172 2.828-1.172h2v-1c0-0.265 0.105-0.52 0.293-0.707s0.442-0.293 0.707-0.293zM4 4c-0.53 0-1.039 0.211-1.414 0.586s-0.586 0.884-0.586 1.414v2h28v-2c0-0.53-0.211-1.039-0.586-1.414s-0.884-0.586-1.414-0.586h-24zM30 10h-28v18c0 0.53 0.211 1.039 0.586 1.414s0.884 0.586 1.414 0.586h24c0.53 0 1.039-0.211 1.414-0.586s0.586-0.884 0.586-1.414v-18z"></path>
<path d="M18 15c0-0.265 0.105-0.52 0.293-0.707s0.442-0.293 0.707-0.293h11v4h-11c-0.265 0-0.52-0.105-0.707-0.293s-0.293-0.442-0.293-0.707v-2zM14 21v2c0 0.265-0.105 0.52-0.293 0.707s-0.442 0.293-0.707 0.293h-11v-4h11c0.265 0 0.52 0.105 0.707 0.293s0.293 0.442 0.293 0.707z"></path>
</symbol>
<symbol id="icon-envelope" viewBox="0 0 32 32">
<path d="M0 8c0-1.061 0.421-2.078 1.172-2.828s1.768-1.172 2.828-1.172h24c1.061 0 2.078 0.421 2.828 1.172s1.172 1.768 1.172 2.828v16c0 1.061-0.421 2.078-1.172 2.828s-1.768 1.172-2.828 1.172h-24c-1.061 0-2.078-0.421-2.828-1.172s-1.172-1.768-1.172-2.828v-16zM4 6c-0.53 0-1.039 0.211-1.414 0.586s-0.586 0.884-0.586 1.414v0.434l14 8.4 14-8.4v-0.434c0-0.53-0.211-1.039-0.586-1.414s-0.884-0.586-1.414-0.586h-24zM30 10.766l-9.416 5.65 9.416 5.794v-11.444zM29.932 24.518l-11.28-6.942-2.652 1.59-2.652-1.59-11.28 6.94c0.114 0.426 0.365 0.802 0.714 1.070s0.777 0.414 1.218 0.414h24c0.44 0 0.868-0.145 1.218-0.413s0.6-0.644 0.714-1.069zM2 22.21l9.416-5.794-9.416-5.65v11.444z"></path>
</symbol>
<symbol id="icon-clipboard-check" viewBox="0 0 32 32">
<path d="M21.708 14.292c0.093 0.093 0.167 0.203 0.217 0.325s0.076 0.252 0.076 0.383c0 0.132-0.026 0.262-0.076 0.383s-0.124 0.232-0.217 0.325l-6 6c-0.093 0.093-0.203 0.167-0.325 0.217s-0.252 0.076-0.383 0.076c-0.132 0-0.262-0.026-0.383-0.076s-0.232-0.124-0.325-0.217l-3-3c-0.093-0.093-0.167-0.203-0.217-0.325s-0.076-0.252-0.076-0.383 0.026-0.262 0.076-0.383c0.050-0.121 0.124-0.232 0.217-0.325 0.188-0.188 0.442-0.293 0.708-0.293 0.132 0 0.262 0.026 0.383 0.076s0.232 0.124 0.325 0.217l2.292 2.294 5.292-5.294c0.093-0.093 0.203-0.167 0.325-0.217s0.252-0.076 0.383-0.076 0.262 0.026 0.383 0.076c0.121 0.050 0.232 0.124 0.325 0.217z"></path>
<path d="M8 3h-2c-1.061 0-2.078 0.421-2.828 1.172s-1.172 1.768-1.172 2.828v21c0 1.061 0.421 2.078 1.172 2.828s1.768 1.172 2.828 1.172h20c1.061 0 2.078-0.421 2.828-1.172s1.172-1.768 1.172-2.828v-21c0-1.061-0.421-2.078-1.172-2.828s-1.768-1.172-2.828-1.172h-2v2h2c0.53 0 1.039 0.211 1.414 0.586s0.586 0.884 0.586 1.414v21c0 0.53-0.211 1.039-0.586 1.414s-0.884 0.586-1.414 0.586h-20c-0.53 0-1.039-0.211-1.414-0.586s-0.586-0.884-0.586-1.414v-21c0-0.53 0.211-1.039 0.586-1.414s0.884-0.586 1.414-0.586h2v-2z"></path>
<path d="M19 2c0.265 0 0.52 0.105 0.707 0.293s0.293 0.442 0.293 0.707v2c0 0.265-0.105 0.52-0.293 0.707s-0.442 0.293-0.707 0.293h-6c-0.265 0-0.52-0.105-0.707-0.293s-0.293-0.442-0.293-0.707v-2c0-0.265 0.105-0.52 0.293-0.707s0.442-0.293 0.707-0.293h6zM13 0c-0.796 0-1.559 0.316-2.121 0.879s-0.879 1.326-0.879 2.121v2c0 0.796 0.316 1.559 0.879 2.121s1.326 0.879 2.121 0.879h6c0.796 0 1.559-0.316 2.121-0.879s0.879-1.326 0.879-2.121v-2c0-0.796-0.316-1.559-0.879-2.121s-1.326-0.879-2.121-0.879h-6z"></path>
</symbol>
<symbol id="icon-coin" viewBox="0 0 32 32">
<path d="M11 19.022c0.152 1.908 1.66 3.394 4.364 3.57v1.408h1.2v-1.418c2.8-0.196 4.436-1.692 4.436-3.864 0-1.974-1.252-2.992-3.49-3.52l-0.946-0.224v-3.834c1.2 0.136 1.964 0.792 2.148 1.7h2.104c-0.152-1.838-1.728-3.276-4.252-3.432v-1.408h-1.2v1.438c-2.39 0.234-4.020 1.672-4.020 3.706 0 1.8 1.212 2.944 3.226 3.414l0.794 0.196v4.068c-1.23-0.186-2.044-0.86-2.228-1.8h-2.136zM15.354 14.69c-1.18-0.274-1.82-0.832-1.82-1.672 0-0.94 0.69-1.644 1.83-1.85v3.52l-0.010 0.002zM16.738 17.076c1.434 0.332 2.096 0.87 2.096 1.82 0 1.084-0.824 1.828-2.27 1.964v-3.824l0.174 0.040z"></path>
<path d="M16 30c-3.713 0-7.274-1.475-9.899-4.1s-4.101-6.187-4.101-9.9c0-3.713 1.475-7.274 4.101-9.899s6.186-4.101 9.899-4.101c3.713 0 7.274 1.475 9.9 4.101s4.1 6.186 4.1 9.899c0 3.713-1.475 7.274-4.1 9.9s-6.187 4.1-9.9 4.1zM16 32c4.244 0 8.313-1.686 11.314-4.686s4.686-7.070 4.686-11.314c0-4.243-1.686-8.313-4.686-11.314s-7.070-4.686-11.314-4.686c-4.243 0-8.313 1.686-11.314 4.686s-4.686 7.070-4.686 11.314c0 4.244 1.686 8.313 4.686 11.314s7.070 4.686 11.314 4.686z"></path>
<path d="M16 27c-2.917 0-5.715-1.159-7.778-3.222s-3.222-4.861-3.222-7.778c0-2.917 1.159-5.715 3.222-7.778s4.861-3.222 7.778-3.222c2.917 0 5.715 1.159 7.778 3.222s3.222 4.861 3.222 7.778c0 2.917-1.159 5.715-3.222 7.778s-4.861 3.222-7.778 3.222zM16 28c1.576 0 3.136-0.31 4.592-0.913s2.779-1.487 3.893-2.601 1.998-2.437 2.601-3.893c0.603-1.456 0.913-3.016 0.913-4.592s-0.31-3.136-0.913-4.592c-0.603-1.456-1.487-2.779-2.601-3.893s-2.437-1.998-3.893-2.601c-1.456-0.603-3.016-0.913-4.592-0.913-3.183 0-6.235 1.264-8.485 3.515s-3.515 5.303-3.515 8.485c0 3.183 1.264 6.235 3.515 8.485s5.303 3.515 8.485 3.515z"></path>
</symbol>
<symbol id="icon-briefcase" viewBox="0 0 32 32">
<path d="M13 2c-0.796 0-1.559 0.316-2.121 0.879s-0.879 1.326-0.879 2.121v1h-7c-0.796 0-1.559 0.316-2.121 0.879s-0.879 1.326-0.879 2.121v16c0 0.796 0.316 1.559 0.879 2.121s1.326 0.879 2.121 0.879h26c0.796 0 1.559-0.316 2.121-0.879s0.879-1.326 0.879-2.121v-16c0-0.796-0.316-1.559-0.879-2.121s-1.326-0.879-2.121-0.879h-7v-1c0-0.796-0.316-1.559-0.879-2.121s-1.326-0.879-2.121-0.879h-6zM13 4h6c0.265 0 0.52 0.105 0.707 0.293s0.293 0.442 0.293 0.707v1h-8v-1c0-0.265 0.105-0.52 0.293-0.707s0.442-0.293 0.707-0.293zM16.772 17.828l13.228-3.526v10.698c0 0.265-0.105 0.52-0.293 0.707s-0.442 0.293-0.707 0.293h-26c-0.265 0-0.52-0.105-0.707-0.293s-0.293-0.442-0.293-0.707v-10.7l13.228 3.528c0.506 0.135 1.038 0.135 1.544 0zM3 8h26c0.265 0 0.52 0.105 0.707 0.293s0.293 0.442 0.293 0.707v3.232l-13.742 3.664c-0.169 0.045-0.347 0.045-0.516 0l-13.742-3.664v-3.232c0-0.265 0.105-0.52 0.293-0.707s0.442-0.293 0.707-0.293z"></path>
</symbol>
<symbol id="icon-person-plus" viewBox="0 0 32 32">
<path d="M12 16c1.591 0 3.117-0.632 4.243-1.757s1.757-2.651 1.757-4.243-0.632-3.117-1.757-4.243c-1.125-1.125-2.651-1.757-4.243-1.757s-3.117 0.632-4.243 1.757c-1.125 1.125-1.757 2.651-1.757 4.243s0.632 3.117 1.757 4.243c1.125 1.125 2.651 1.757 4.243 1.757zM16 10c0 1.061-0.421 2.078-1.172 2.828s-1.768 1.172-2.828 1.172c-1.061 0-2.078-0.421-2.828-1.172s-1.172-1.768-1.172-2.828c0-1.061 0.421-2.078 1.172-2.828s1.768-1.172 2.828-1.172c1.061 0 2.078 0.421 2.828 1.172s1.172 1.768 1.172 2.828zM24 26c0 2-2 2-2 2h-20c0 0-2 0-2-2s2-8 12-8c10 0 12 6 12 8zM22 25.992c-0.002-0.492-0.308-1.972-1.664-3.328-1.304-1.304-3.758-2.664-8.336-2.664-4.58 0-7.032 1.36-8.336 2.664-1.356 1.356-1.66 2.836-1.664 3.328h20z"></path>
<path d="M27 10c0.265 0 0.52 0.105 0.707 0.293s0.293 0.442 0.293 0.707v3h3c0.265 0 0.52 0.105 0.707 0.293s0.293 0.442 0.293 0.707-0.105 0.52-0.293 0.707c-0.188 0.188-0.442 0.293-0.707 0.293h-3v3c0 0.265-0.105 0.52-0.293 0.707s-0.442 0.293-0.707 0.293-0.52-0.105-0.707-0.293c-0.188-0.188-0.293-0.442-0.293-0.707v-3h-3c-0.265 0-0.52-0.105-0.707-0.293s-0.293-0.442-0.293-0.707 0.105-0.52 0.293-0.707c0.188-0.188 0.442-0.293 0.707-0.293h3v-3c0-0.265 0.105-0.52 0.293-0.707s0.442-0.293 0.707-0.293z"></path>
</symbol>
<symbol id="icon-columns-gap" viewBox="0 0 32 32">
<path d="M12 2v6h-10v-6h10zM2 0c-0.53 0-1.039 0.211-1.414 0.586s-0.586 0.884-0.586 1.414v6c0 0.53 0.211 1.039 0.586 1.414s0.884 0.586 1.414 0.586h10c0.53 0 1.039-0.211 1.414-0.586s0.586-0.884 0.586-1.414v-6c0-0.53-0.211-1.039-0.586-1.414s-0.884-0.586-1.414-0.586h-10zM30 24v6h-10v-6h10zM20 22c-0.53 0-1.039 0.211-1.414 0.586s-0.586 0.884-0.586 1.414v6c0 0.53 0.211 1.039 0.586 1.414s0.884 0.586 1.414 0.586h10c0.53 0 1.039-0.211 1.414-0.586s0.586-0.884 0.586-1.414v-6c0-0.53-0.211-1.039-0.586-1.414s-0.884-0.586-1.414-0.586h-10zM12 16v14h-10v-14h10zM2 14c-0.53 0-1.039 0.211-1.414 0.586s-0.586 0.884-0.586 1.414v14c0 0.53 0.211 1.039 0.586 1.414s0.884 0.586 1.414 0.586h10c0.53 0 1.039-0.211 1.414-0.586s0.586-0.884 0.586-1.414v-14c0-0.53-0.211-1.039-0.586-1.414s-0.884-0.586-1.414-0.586h-10zM30 2v14h-10v-14h10zM20 0c-0.53 0-1.039 0.211-1.414 0.586s-0.586 0.884-0.586 1.414v14c0 0.53 0.211 1.039 0.586 1.414s0.884 0.586 1.414 0.586h10c0.53 0 1.039-0.211 1.414-0.586s0.586-0.884 0.586-1.414v-14c0-0.53-0.211-1.039-0.586-1.414s-0.884-0.586-1.414-0.586h-10z"></path>
</symbol>
<!-- Menu icons -->
<symbol id="icon-burger-menu" viewBox="0 0 32 32">
<path d="M4 25c0-0.265 0.105-0.52 0.293-0.707s0.442-0.293 0.707-0.293h22c0.265 0 0.52 0.105 0.707 0.293s0.293 0.442 0.293 0.707-0.105 0.52-0.293 0.707c-0.187 0.188-0.442 0.293-0.707 0.293h-22c-0.265 0-0.52-0.105-0.707-0.293s-0.293-0.442-0.293-0.707zM4 19c0-0.265 0.105-0.52 0.293-0.707s0.442-0.293 0.707-0.293h22c0.265 0 0.52 0.105 0.707 0.293s0.293 0.442 0.293 0.707-0.105 0.52-0.293 0.707c-0.187 0.188-0.442 0.293-0.707 0.293h-22c-0.265 0-0.52-0.105-0.707-0.293s-0.293-0.442-0.293-0.707zM4 13c0-0.265 0.105-0.52 0.293-0.707s0.442-0.293 0.707-0.293h22c0.265 0 0.52 0.105 0.707 0.293s0.293 0.442 0.293 0.707-0.105 0.52-0.293 0.707c-0.187 0.188-0.442 0.293-0.707 0.293h-22c-0.265 0-0.52-0.105-0.707-0.293s-0.293-0.442-0.293-0.707zM4 7c0-0.265 0.105-0.52 0.293-0.707s0.442-0.293 0.707-0.293h22c0.265 0 0.52 0.105 0.707 0.293s0.293 0.442 0.293 0.707-0.105 0.52-0.293 0.707c-0.187 0.188-0.442 0.293-0.707 0.293h-22c-0.265 0-0.52-0.105-0.707-0.293s-0.293-0.442-0.293-0.707z"></path>
</symbol>
<symbol id="icon-search" viewBox="0 0 32 32">
<path d="M23.484 20.688c1.937-2.643 2.804-5.919 2.429-9.174s-1.966-6.248-4.453-8.38c-2.487-2.132-5.688-3.247-8.962-3.121s-6.379 1.484-8.695 3.801c-2.316 2.317-3.671 5.424-3.795 8.698s0.993 6.474 3.127 8.96c2.134 2.486 5.128 4.074 8.383 4.447s6.531-0.497 9.172-2.435h-0.002c0.060 0.080 0.124 0.156 0.196 0.23l7.7 7.7c0.375 0.375 0.884 0.586 1.414 0.586s1.040-0.21 1.415-0.585c0.375-0.375 0.586-0.884 0.586-1.414s-0.21-1.039-0.585-1.415l-7.7-7.7c-0.072-0.072-0.148-0.137-0.23-0.198zM24 13c0 1.445-0.284 2.875-0.837 4.21s-1.363 2.547-2.384 3.569-2.234 1.832-3.569 2.384c-1.335 0.553-2.765 0.837-4.209 0.837s-2.875-0.284-4.21-0.837c-1.335-0.553-2.547-1.363-3.569-2.384s-1.832-2.234-2.385-3.569c-0.553-1.335-0.837-2.765-0.837-4.21 0-2.917 1.159-5.715 3.222-7.778s4.861-3.222 7.778-3.222c2.917 0 5.715 1.159 7.778 3.222s3.222 4.861 3.222 7.778z"></path>
</symbol>
<symbol id="icon-bell" viewBox="0 0 32 32">
<path d="M16 32c1.061 0 2.078-0.421 2.828-1.172s1.172-1.768 1.172-2.828h-8c0 1.061 0.421 2.078 1.172 2.828s1.768 1.172 2.828 1.172zM16 3.836l-1.594 0.322c-1.808 0.368-3.433 1.35-4.601 2.779s-1.805 3.218-1.805 5.063c0 1.256-0.268 4.394-0.918 7.484-0.32 1.534-0.752 3.132-1.326 4.516h20.488c-0.574-1.384-1.004-2.98-1.326-4.516-0.65-3.090-0.918-6.228-0.918-7.484-0.001-1.845-0.639-3.633-1.806-5.062s-2.792-2.41-4.6-2.778l-1.594-0.324zM28.44 24c0.446 0.894 0.962 1.602 1.56 2h-28c0.598-0.398 1.114-1.106 1.56-2 1.8-3.6 2.44-10.24 2.44-12 0-4.84 3.44-8.88 8.010-9.802-0.028-0.278 0.003-0.559 0.090-0.824s0.229-0.51 0.417-0.717c0.188-0.207 0.416-0.373 0.672-0.486s0.532-0.172 0.811-0.172c0.28 0 0.556 0.059 0.811 0.172s0.484 0.279 0.672 0.486 0.329 0.452 0.417 0.717c0.087 0.266 0.118 0.546 0.090 0.824 2.261 0.46 4.293 1.687 5.752 3.473s2.257 4.022 2.258 6.329c0 1.76 0.64 8.4 2.44 12z"></path>
</symbol>
<!-- Companies icons -->
<symbol id="icon-arcticons_thunder" viewBox="0 0 32 32">
<path stroke-linejoin="round" stroke-linecap="round" stroke-miterlimit="4" stroke-width="0.6154" d="M11.105 27.17c1.754-1.103 2.945-4.855 0.685-6.823l-5.275 7.735c-0.427 0.624-0.2 1.289 1.13 0.67l13.127-6.117c0.255-0.123 0.483-0.296 0.671-0.507s0.333-0.458 0.426-0.725c0.093-0.267 0.132-0.551 0.116-0.833s-0.088-0.559-0.212-0.814l-0.004-0.008-4.56-9.85c-0.547-1.126 0.323-2.903 1.924-4.209M20.894 4.83c-1.753 1.103-2.945 4.855-0.685 6.823l5.275-7.735c0.427-0.624 0.2-1.289-1.13-0.67l-13.127 6.117c-0.255 0.123-0.483 0.296-0.671 0.507s-0.333 0.458-0.426 0.725-0.132 0.551-0.116 0.833c0.016 0.283 0.088 0.559 0.212 0.814l0.004 0.008 4.56 9.85c0.547 1.126-0.323 2.903-1.924 4.21"></path>
</symbol>
<symbol id="icon-system-uicons_diamond" viewBox="0 0 32 32">
<path stroke-linejoin="round" stroke-linecap="round" stroke-miterlimit="4" stroke-width="0.6154" d="M28.19 12.19l-4.571-6.095h-15.224l-4.585 6.095M28.19 12.19l-12.19 15.238M28.19 12.19h-24.381M16 27.429l-12.191-15.238M16 27.429l-4.571-15.238M16 27.429l4.571-15.238"></path>
<path stroke-linejoin="round" stroke-linecap="round" stroke-miterlimit="4" stroke-width="0.6154" d="M8.395 6.095l3.034 6.095 4.571-6.095 4.571 6.095 3.048-6.095"></path>
</symbol>
<symbol id="icon-companies-arrow" viewBox="0 0 32 32">
<path d="M15.998 0.429c-2.829 4.557-9.042 12.002-14.336 15.724v5.056c5.077-3.72 10.048-8.845 13.436-13.928l0.902-1.353 0.902 1.354c3.378 5.066 8.408 10.161 13.436 13.905v-5.027c-5.39-3.722-11.533-11.179-14.34-15.73zM15.998 10.791c-2.829 4.557-9.042 12.002-14.336 15.725v5.055c5.077-3.72 10.048-8.845 13.436-13.928l0.902-1.353 0.902 1.353c3.378 5.066 8.408 10.161 13.436 13.905v-5.027c-5.39-3.722-11.533-11.179-14.34-15.73v-0z"></path>
</symbol>
<symbol id="icon-eternity" viewBox="0 0 32 32">
<path d="M31.544 19.011c0 2.226-0.434 4.122-1.255 5.484-0.996 1.653-2.543 2.527-4.477 2.527-3.779 0-6.542-5.159-9.467-10.622-2.445-4.558-5.213-9.726-7.975-9.726-3.29 0-6.217 6.9-6.217 12.337 0 1.918 0.35 3.51 1.012 4.609 0.692 1.147 1.682 1.706 3.024 1.706 2.283 0 4.566-3.541 6.5-7.004 0.118-0.177 0.299-0.303 0.507-0.353s0.426-0.020 0.612 0.084c0.186 0.104 0.326 0.274 0.392 0.477s0.053 0.423-0.036 0.617c-2.12 3.81-4.663 7.875-7.975 7.875-1.932 0-3.48-0.873-4.477-2.527-0.821-1.362-1.255-3.259-1.255-5.484 0-5.721 3.082-14.033 7.913-14.033 3.778 0 6.542 5.159 9.467 10.622 2.443 4.558 5.211 9.726 7.975 9.726 1.342 0 2.332-0.558 3.024-1.706 0.661-1.099 1.012-2.692 1.012-4.609 0-5.437-2.926-12.337-6.217-12.337-1.272 0-2.672 1.097-4.259 3.353-0.13 0.184-0.327 0.309-0.548 0.348s-0.45-0.013-0.634-0.142c-0.184-0.129-0.309-0.327-0.348-0.548s0.013-0.45 0.142-0.634c1.231-1.748 3.155-4.072 5.647-4.072 4.831 0 7.913 8.312 7.913 14.033z"></path>
</symbol>
<symbol id="icon-companies-poligon" viewBox="0 0 32 32">
<path d="M16.831 8.461l8.085 5.118-1.508 1.097-7.473-4.73-7.4 4.729-1.498-1.101 7.997-5.108c0.268-0.172 0.58-0.264 0.898-0.265s0.631 0.090 0.899 0.261z"></path>
<path d="M1.124 13.325l13.819 10.148c0.594 0.435 1.387 0.438 1.981 0.004l13.946-10.149c1.012-0.737 0.964-2.305-0.091-2.973l-13.947-8.829c-0.269-0.171-0.581-0.262-0.899-0.261s-0.63 0.093-0.898 0.265l-13.818 8.83c-1.047 0.668-1.095 2.227-0.092 2.964zM2.149 11.82l13.786-8.808 13.921 8.814c0.007 0.014 0.010 0.029 0.010 0.044 0.001 0.016-0.002 0.033-0.009 0.048 0 0.002-0.001 0.003-0.002 0.004l-0.006 0.005-13.914 10.124-13.786-10.124c-0.002-0.001-0.004-0.003-0.006-0.005l-0.003-0.005c-0.006-0.015-0.009-0.031-0.008-0.047s0.004-0.030 0.010-0.044l0.001-0.003 0.004-0.003z"></path>
<path d="M2.339 16.576l1.498 1.101-1.687 1.077c-0.002 0.001-0.003 0.002-0.004 0.004l-0.001 0.003c-0.007 0.014-0.010 0.028-0.010 0.043-0.001 0.018 0.002 0.035 0.010 0.051 0 0.001 0.001 0.001 0.001 0.002l0.006 0.005 13.786 10.124 13.923-10.133c0.006-0.015 0.009-0.031 0.008-0.048s-0.004-0.030-0.010-0.044l-0.001-0.003-0.004-0.003-1.716-1.087 1.508-1.096 1.135 0.718c1.055 0.667 1.103 2.236 0.091 2.973l-13.946 10.148c-0.595 0.433-1.388 0.431-1.981-0.004l-13.819-10.149c-1.004-0.737-0.955-2.295 0.092-2.964l1.123-0.718z"></path>
</symbol>
<symbol id="icon-companies-sass" viewBox="0 0 32 32">
<path d="M31.986 20.504c-0.092-0.745-0.469-1.391-1.125-1.923-0.008-0.010-0.017-0.019-0.027-0.027l-0.033-0.024-0.011-0.008-0.404-0.29c-0.016-0.009-0.034-0.017-0.052-0.022-1.101-0.656-2.924-1.115-5.714-0.131-0.666-1.12-0.741-2.018-0.296-3.393 0.079-0.239 0.006-0.398-0.232-0.5-0.478-0.203-1.131-0.099-1.595 0.023-0.216 0.056-0.346 0.179-0.387 0.364-0.294 1.375-1.148 2.631-1.973 3.844l-0.049 0.071c-0.509-1.079-0.403-1.914-0.049-2.961 0.071-0.209 0.015-0.348-0.181-0.451-0.546-0.282-1.366-0.088-1.692 0.008-0.414 0.121-0.857 1.239-1.353 2.578-0.125 0.337-0.233 0.625-0.297 0.759-0.153 0.313-0.299 0.669-0.454 1.047-0.35 0.856-0.744 1.819-1.308 2.424-0.205-0.453 0.118-1.168 0.431-1.861 0.371-0.819 0.721-1.594 0.317-2.088-0.064-0.078-0.143-0.142-0.232-0.189s-0.188-0.074-0.288-0.081c-0.131-0.010-0.263 0.011-0.384 0.063 0.042-0.353 0.044-0.632-0.059-0.969-0.148-0.481-0.531-0.75-1.058-0.736-1.201 0.035-2.218 0.93-2.859 1.675-0.428 0.5-1.375 0.881-2.207 1.216-0.329 0.139-0.641 0.264-0.902 0.389-0.416-0.351-0.944-0.706-1.5-1.080-1.563-1.049-3.333-2.238-3.394-3.851-0.087-2.382 2.625-4.071 4.992-5.277 1.794-0.912 3.354-1.517 4.769-1.848 1.988-0.464 3.666-0.371 4.989 0.277 0.724 0.354 1.062 1.125 0.847 1.918-0.562 2.059-2.893 3.471-4.886 4.106-1.201 0.383-2.223 0.543-3.125 0.49-1.131-0.066-2.055-0.633-2.45-0.875-0.063-0.043-0.13-0.081-0.2-0.113l-0.018-0.004c-0.036-0.009-0.073-0.008-0.109 0.003s-0.067 0.032-0.091 0.059c-0.081 0.097-0.053 0.25-0.023 0.328 0.384 1.004 1.178 1.639 2.359 1.886 0.386 0.077 0.78 0.115 1.174 0.112 2.763 0 6.289-1.593 7.584-2.905 0.883-0.894 1.526-1.813 1.793-3.397 0.278-1.659-0.847-2.813-1.993-3.344-2.786-1.286-5.949-0.777-8.113-0.125-2.531 0.763-5.15 2.151-7.184 3.808-2.507 2.042-3.414 3.937-2.695 5.641 0.738 1.746 2.538 2.837 4.279 3.894 0.563 0.341 1.098 0.665 1.579 1-0.145 0.071-0.293 0.142-0.444 0.214-1.461 0.708-3.119 1.505-4.038 2.822-0.667 0.959-0.792 1.914-0.371 2.839 0.225 0.492 0.625 0.826 1.181 0.992 0.289 0.082 0.588 0.122 0.889 0.118 1.082 0 2.272-0.438 2.921-0.842 1.145-0.719 1.887-1.684 2.206-2.868 0.284-1.054 0.216-2.101-0.197-3.035l1.403-0.707c-0.677 2.25-0.158 3.594 0.412 4.335 0.21 0.273 0.589 0.438 1.012 0.445s0.813-0.152 1.033-0.423c0.416-0.516 0.724-1.119 1.007-1.722-0.015 0.394 0.004 0.793 0.138 1.131 0.121 0.304 0.319 0.506 0.576 0.584 0.273 0.083 0.592 0.013 0.899-0.197 1.386-0.948 2.333-3.224 3.094-5.053 0.108-0.26 0.212-0.51 0.313-0.744 0.188 0.674 0.45 1.325 0.781 1.942 0.074 0.134 0.067 0.192-0.032 0.303-0.151 0.165-0.361 0.364-0.583 0.576-0.674 0.639-1.512 1.437-1.625 2.139-0.044 0.281 0.15 0.538 0.451 0.596 0.904 0.18 1.994-0.083 2.915-0.703 0.837-0.562 1.152-1.347 0.937-2.324-0.208-0.941 0.267-2.11 1.412-3.476 0.188 0.783 0.438 1.416 0.783 1.971l-0.009 0.008c-0.834 0.728-1.976 1.725-1.799 2.934 0.015 0.115 0.054 0.226 0.114 0.325s0.14 0.185 0.235 0.251c0.102 0.069 0.216 0.115 0.337 0.137s0.244 0.019 0.363-0.009c1.092-0.229 1.914-0.691 2.511-1.411s0.379-1.517 0.178-2.136c1.563-0.424 2.954-0.413 4.256 0.031 0.731 0.25 1.256 0.661 1.558 1.227 0.381 0.713 0.175 1.371-0.581 1.853-0.232 0.148-0.344 0.239-0.351 0.353-0.002 0.027 0.003 0.053 0.014 0.077s0.027 0.046 0.048 0.062c0.087 0.072 0.357 0.197 0.968-0.188 0.563-0.353 0.892-0.834 0.977-1.437 0.017-0.166 0.017-0.334-0.001-0.501zM7.003 22.071l-0.006 0.080c-0.098 0.915-0.563 1.713-1.384 2.375-0.516 0.416-1.077 0.672-1.578 0.721-0.35 0.034-0.604-0.014-0.756-0.142-0.113-0.096-0.174-0.239-0.188-0.438-0.103-1.593 2.395-3.175 3.801-3.696 0.1 0.357 0.138 0.729 0.111 1.099zM13.4 17.579c-0.231 1.318-0.906 3.806-1.966 4.772-0.051 0.046-0.093 0.062-0.113 0.058s-0.034-0.027-0.050-0.063c-0.354-0.82-0.223-2.205 0.313-3.293 0.412-0.839 1-1.394 1.658-1.562 0.027-0.008 0.055-0.012 0.084-0.012 0.022-0.002 0.044 0.004 0.062 0.017 0.008 0.012 0.013 0.026 0.015 0.040s0.001 0.029-0.003 0.043zM18.618 22.384c-0.199 0.208-0.473 0.18-0.408 0.104l1.015-1.078c-0.082 0.371-0.324 0.678-0.607 0.974zM22.829 21.453c-0.097 0.048-0.201 0.077-0.308 0.087-0.029-0.567 0.521-1.205 1.062-1.631 0.146 0.591-0.152 1.216-0.754 1.544z"></path>
</symbol>
<!-- Others icons -->
<symbol id="icon-geo-alt-fill" viewBox="0 0 32 32">
<path d="M16 32c0 0 12-11.372 12-20 0-3.183-1.264-6.235-3.515-8.485s-5.303-3.515-8.485-3.515c-3.183 0-6.235 1.264-8.485 3.515s-3.515 5.303-3.515 8.485c0 8.628 12 20 12 20zM16 18c-1.591 0-3.117-0.632-4.243-1.757s-1.757-2.651-1.757-4.243 0.632-3.117 1.757-4.243c1.125-1.125 2.651-1.757 4.243-1.757s3.117 0.632 4.243 1.757c1.125 1.125 1.757 2.651 1.757 4.243s-0.632 3.117-1.757 4.243c-1.125 1.125-2.651 1.757-4.243 1.757z"></path>
</symbol>
<symbol id="icon-plus" viewBox="0 0 32 32">
<path d="M16 8c0.265 0 0.52 0.105 0.707 0.293s0.293 0.442 0.293 0.707v6h6c0.265 0 0.52 0.105 0.707 0.293s0.293 0.442 0.293 0.707-0.105 0.52-0.293 0.707c-0.188 0.188-0.442 0.293-0.707 0.293h-6v6c0 0.265-0.105 0.52-0.293 0.707s-0.442 0.293-0.707 0.293-0.52-0.105-0.707-0.293c-0.188-0.188-0.293-0.442-0.293-0.707v-6h-6c-0.265 0-0.52-0.105-0.707-0.293s-0.293-0.442-0.293-0.707c0-0.265 0.105-0.52 0.293-0.707s0.442-0.293 0.707-0.293h6v-6c0-0.265 0.105-0.52 0.293-0.707s0.442-0.293 0.707-0.293z"></path>
</symbol>
<symbol id="icon-dash" viewBox="0 0 32 32">
<path d="M8 16c0-0.265 0.105-0.52 0.293-0.707s0.442-0.293 0.707-0.293h14c0.265 0 0.52 0.105 0.707 0.293s0.293 0.442 0.293 0.707-0.105 0.52-0.293 0.707c-0.188 0.188-0.442 0.293-0.707 0.293h-14c-0.265 0-0.52-0.105-0.707-0.293s-0.293-0.442-0.293-0.707z"></path>
</symbol>
<symbol id="icon-done" viewBox="0 0 32 32">
<path d="M27.708 7.292c0.093 0.093 0.167 0.203 0.217 0.325s0.076 0.252 0.076 0.383-0.026 0.262-0.076 0.383c-0.050 0.121-0.124 0.232-0.217 0.325l-14 14c-0.093 0.093-0.203 0.167-0.325 0.217s-0.252 0.076-0.383 0.076c-0.132 0-0.262-0.026-0.383-0.076s-0.232-0.124-0.325-0.217l-7-7c-0.188-0.188-0.293-0.442-0.293-0.708s0.106-0.52 0.293-0.708c0.188-0.188 0.442-0.293 0.708-0.293s0.52 0.105 0.708 0.293l6.292 6.294 13.292-13.294c0.093-0.093 0.203-0.167 0.325-0.217s0.252-0.076 0.383-0.076c0.132 0 0.262 0.026 0.383 0.076s0.232 0.124 0.325 0.217z"></path>
</symbol>
<symbol id="icon-chevron-down" viewBox="0 0 32 32">
<path d="M3.292 9.292c0.093-0.093 0.203-0.167 0.325-0.217s0.252-0.076 0.383-0.076c0.132 0 0.262 0.026 0.383 0.076s0.232 0.124 0.325 0.217l11.292 11.294 11.292-11.294c0.093-0.093 0.203-0.167 0.325-0.217s0.252-0.076 0.383-0.076 0.262 0.026 0.383 0.076c0.122 0.050 0.232 0.124 0.325 0.217s0.167 0.203 0.217 0.325c0.050 0.121 0.076 0.252 0.076 0.383s-0.026 0.262-0.076 0.383c-0.050 0.121-0.124 0.232-0.217 0.325l-12 12c-0.093 0.093-0.203 0.167-0.325 0.217s-0.252 0.076-0.383 0.076c-0.132 0-0.262-0.026-0.383-0.076s-0.232-0.124-0.325-0.217l-12-12c-0.093-0.093-0.167-0.203-0.217-0.325s-0.076-0.252-0.076-0.383c0-0.132 0.026-0.262 0.076-0.383s0.124-0.232 0.217-0.325z"></path>
</symbol>
<symbol id="icon-chevron-up" viewBox="0 0 32 32">
<path d="M15.292 9.292c0.093-0.093 0.203-0.167 0.325-0.217s0.252-0.076 0.383-0.076c0.132 0 0.262 0.026 0.383 0.076s0.232 0.124 0.325 0.217l12 12c0.188 0.188 0.293 0.442 0.293 0.708s-0.106 0.52-0.293 0.708c-0.188 0.188-0.442 0.293-0.708 0.293s-0.52-0.105-0.708-0.293l-11.292-11.294-11.292 11.294c-0.188 0.188-0.442 0.293-0.708 0.293s-0.52-0.105-0.708-0.293c-0.188-0.188-0.293-0.442-0.293-0.708s0.106-0.52 0.293-0.708l12-12z"></path>
</symbol>
<!-- Logo cat -->
<symbol id="icon-cat" viewBox="0 0 32 32">
<path fill="#1c1c24" style="fill: var(--color1, #1c1c24)" d="M2.555 10.693c0 0-0.474-8.812 1.441-9.253s5.218 2.721 5.218 2.721l-6.659 6.532z"></path>
<path fill="#1c1c24" style="fill: var(--color1, #1c1c24)" d="M20.642 4.376c0 0 3.535-3.52 6.041-2.934 2.504 0.586 0.59 7.545 0.59 7.545l-6.631-4.611z"></path>
<path fill="#f07f2e" style="fill: var(--color2, #f07f2e); stroke: var(--color1, #1c1c24)" stroke="#1c1c24" stroke-linejoin="miter" stroke-linecap="butt" stroke-miterlimit="10" stroke-width="0.5333" d="M27.558 26.809c-2.653 2.097-4.428 2.782-7.444 3.598-2.013 0.545-7.083 0.517-11.808-1.384-3.31-1.448-4.607-3.022-5.232-3.88-0.544-0.746-1.65-2.402-1.713-4.214-0.092-2.637-0.015-5.21 1.196-10.232 1.211-5.024 6.659-6.532 6.659-6.532 5.953-1.406 10.897-0.301 12.612 0s6.589 3.387 7.008 9.571c0.064 0.925 1.1 4.214 1.2 6.977 0.030 0.847 0.055 1.975-0.367 3.133-0.487 1.335-1.573 2.513-2.11 2.963z"></path>
<path fill="#1c1c24" style="fill: var(--color1, #1c1c24)" d="M11.148 14.33c0.042-0.079 0.090-0.155 0.142-0.23 0.025-0.036 0.050-0.071 0.075-0.107 0.014-0.019 0.030-0.039 0.044-0.057 0.034-0.048-0.076 0.092-0.006 0.008 0.072-0.087 0.145-0.171 0.226-0.25 0.042-0.042 0.086-0.082 0.131-0.121 0.016-0.014 0.095-0.077 0.033-0.029s0.028-0.019 0.048-0.033c0.050-0.034 0.103-0.067 0.157-0.095 0.026-0.014 0.055-0.026 0.083-0.040 0.055-0.028-0.098 0.031 0.009-0.002 0.059-0.019 0.118-0.033 0.178-0.047 0.079-0.020-0.101 0.003-0.019 0.003 0.036 0 0.072-0.005 0.109-0.003 0.033 0 0.065 0.006 0.097 0.006 0.059 0-0.095-0.026-0.039-0.005 0.012 0.005 0.030 0.005 0.044 0.009 0.034 0.009 0.069 0.017 0.101 0.028 0.014 0.005 0.030 0.011 0.044 0.015 0.092 0.026-0.053-0.034-0.008-0.003 0.076 0.051 0.165 0.090 0.243 0.141 0.016 0.011 0.031 0.022 0.047 0.034-0.075-0.057 0 0.001 0.014 0.015 0.042 0.039 0.086 0.076 0.126 0.116 0.209 0.208 0.336 0.389 0.495 0.645 0.132 0.213 0.418 0.296 0.639 0.168 0.213-0.124 0.301-0.422 0.168-0.636-0.5-0.802-1.259-1.613-2.297-1.432-0.623 0.109-1.111 0.599-1.468 1.088-0.081 0.11-0.159 0.225-0.223 0.344-0.118 0.222-0.056 0.506 0.168 0.636 0.21 0.119 0.52 0.053 0.639-0.169z"></path>
<path fill="#1c1c24" style="fill: var(--color1, #1c1c24)" d="M24.801 13.665c0.041-0.076 0.087-0.149 0.135-0.22 0.023-0.034 0.047-0.068 0.072-0.102 0.014-0.019 0.028-0.037 0.041-0.056 0.034-0.047-0.078 0.095-0.008 0.012 0.069-0.082 0.139-0.163 0.217-0.239 0.040-0.040 0.083-0.079 0.126-0.115 0.016-0.014 0.093-0.076 0.030-0.026s0.023-0.017 0.044-0.030c0.048-0.033 0.098-0.064 0.15-0.092 0.027-0.014 0.053-0.026 0.078-0.039 0.055-0.028-0.103 0.033 0.005 0 0.056-0.017 0.114-0.031 0.171-0.045 0.078-0.019-0.104 0.005-0.023 0.003 0.034 0 0.069-0.005 0.104-0.003 0.031 0 0.062 0.006 0.094 0.006 0.059 0-0.098-0.026-0.044-0.005 0.013 0.005 0.028 0.005 0.041 0.008 0.033 0.009 0.065 0.017 0.097 0.026 0.014 0.005 0.028 0.011 0.042 0.014 0.090 0.026-0.056-0.036-0.012-0.006 0.073 0.050 0.157 0.085 0.232 0.137 0.015 0.011 0.030 0.022 0.044 0.033-0.079-0.060-0.006-0.003 0.009 0.011 0.041 0.037 0.083 0.073 0.121 0.112 0.204 0.203 0.313 0.362 0.472 0.614 0.132 0.213 0.418 0.296 0.639 0.168 0.213-0.124 0.301-0.422 0.168-0.636-0.485-0.776-1.218-1.556-2.222-1.381-0.603 0.105-1.072 0.579-1.418 1.050-0.078 0.105-0.151 0.216-0.213 0.33-0.118 0.222-0.056 0.506 0.168 0.636 0.213 0.124 0.523 0.057 0.642-0.166z"></path>
<path fill="none" stroke="#1c1c24" style="stroke: var(--color1, #1c1c24)" stroke-linejoin="miter" stroke-linecap="butt" stroke-miterlimit="10" stroke-width="0.5333" d="M14.163 18.362l-4.835-0.155"></path>
<path fill="none" stroke="#1c1c24" style="stroke: var(--color1, #1c1c24)" stroke-linejoin="miter" stroke-linecap="butt" stroke-miterlimit="10" stroke-width="0.5333" d="M14.243 20.021l-4.197 0.621"></path>
<path fill="none" stroke="#1c1c24" style="stroke: var(--color1, #1c1c24)" stroke-linejoin="miter" stroke-linecap="butt" stroke-miterlimit="10" stroke-width="0.5333" d="M26.898 17.646l4.835-0.155"></path>
<path fill="none" stroke="#1c1c24" style="stroke: var(--color1, #1c1c24)" stroke-linejoin="miter" stroke-linecap="butt" stroke-miterlimit="10" stroke-width="0.5333" d="M26.82 19.3l4.197 0.619"></path>
<path fill="none" stroke="#1c1c24" style="stroke: var(--color1, #1c1c24)" stroke-linejoin="miter" stroke-linecap="butt" stroke-miterlimit="10" stroke-width="0.5333" d="M19.982 19.514c0 0 2.339 3.224 4.317-0.059"></path>
<path fill="none" stroke="#1c1c24" style="stroke: var(--color1, #1c1c24)" stroke-linejoin="miter" stroke-linecap="butt" stroke-miterlimit="10" stroke-width="0.5333" d="M22.16 17.105v3.641"></path>
<path fill="#1c1c24" style="fill: var(--color1, #1c1c24)" d="M22.117 17.269c0.979 0 1.773-0.557 1.773-1.244s-0.794-1.244-1.773-1.244c-0.979 0-1.773 0.557-1.773 1.244s0.794 1.244 1.773 1.244z"></path>
<path fill="#1c1c24" style="fill: var(--color1, #1c1c24); stroke: var(--color1, #1c1c24)" stroke="#1c1c24" stroke-linejoin="miter" stroke-linecap="butt" stroke-miterlimit="10" stroke-width="0.5333" d="M6.587 15.508c1.572-1.621-3.453-5.024-3.823-5.169-0.016-0.006-1.429 6.361-1.356 10.195 0.017 0.895 0.187 1.827 0.187 1.827 0.294 0.261 0.487 1.1 2.69 0.028 1.232-0.6 1.475-1.823 0.354-2.059-2.158-0.451 0.006-0.932-0.347-1.786-0.893-2.153 0.643-1.331 2.297-3.036z"></path>
<path fill="#1c1c24" style="fill: var(--color1, #1c1c24); stroke: var(--color1, #1c1c24)" stroke="#1c1c24" stroke-linejoin="miter" stroke-linecap="butt" stroke-miterlimit="10" stroke-width="0.5333" d="M27.935 21.832c0.182-1.907 1.972-1.369 1.972-1.369 0.596 3.481-1.487 5.845-2.989 6.672-0.365 0-0.714-2.128 0.106-2.399s0.729-0.998 0.911-2.904z"></path>
</symbol>
</defs>
</svg>
