<svg xmlns="http://www.w3.org/2000/svg" aria-hidden="true" style="position:absolute;width:0;height:0;overflow:hidden"><defs><symbol id="icon-info-circle" viewBox="0 0 32 32"><path d="M16 30a14 14 0 1 1 0-28 14 14 0 0 1 0 28zm0 2a16.003 16.003 0 0 0 16-16A15.997 15.997 0 0 0 16 0 15.997 15.997 0 0 0 0 16a16.003 16.003 0 0 0 16 16z"/><path d="m17.86 13.176-4.58.574-.164.76.9.166c.588.14.704.352.576.938l-1.476 6.936c-.388 1.794.21 2.638 1.616 2.638 1.09 0 2.356-.504 2.93-1.196l.176-.832c-.4.352-.984.492-1.372.492-.55 0-.75-.386-.608-1.066l2.002-9.41zM18 9a2 2 0 1 1-4.001-.001A2 2 0 0 1 18 9z"/></symbol><symbol id="icon-exclamation-triangle" viewBox="0 0 32 32"><path d="M15.876 4.032c.039-.021.083-.033.128-.032s.087.011.126.032a.289.289 0 0 1 .108.114L29.952 27.48a.35.35 0 0 1 .004.366.328.328 0 0 1-.108.12.237.237 0 0 1-.132.034H2.292a.237.237 0 0 1-.132-.034.32.32 0 0 1-.108-.12.35.35 0 0 1 .004-.366L15.768 4.146a.289.289 0 0 1 .108-.114zm2.088-.9a2.26 2.26 0 0 0-3.92 0L.33 26.466C-.584 28.022.512 30 2.29 30h27.426c1.778 0 2.876-1.98 1.96-3.534L17.964 3.132z"/><path d="M14.004 24a2.004 2.004 0 0 1 .586-1.414 1.986 1.986 0 0 1 1.414-.585 2.004 2.004 0 0 1 1.848 1.234 2 2 0 1 1-3.848.765zm.196-12.01a1.812 1.812 0 0 1 1.799-2.001c.254 0 .505.053.736.157s.439.254.609.443.298.411.376.652c.078.241.105.496.078.749l-.7 7.014a1.107 1.107 0 0 1-1.1 1.01 1.105 1.105 0 0 1-1.1-1.01l-.7-7.014z"/></symbol><symbol id="icon-x-octagon" viewBox="0 0 32 32"><path d="M9.08.292A.998.998 0 0 1 9.786 0h12.428c.265 0 .519.105.706.292l8.788 8.788a.998.998 0 0 1 .292.706v12.428a.998.998 0 0 1-.292.706l-8.788 8.788a.998.998 0 0 1-.706.292H9.786a.998.998 0 0 1-.706-.292L.292 22.92A.998.998 0 0 1 0 22.214V9.786c0-.265.105-.519.292-.706L9.08.292zM10.2 2 2 10.2v11.6l8.2 8.2h11.6l8.2-8.2V10.2L21.8 2H10.2z"/><path d="M9.292 9.292A.991.991 0 0 1 10 8.999a1.002 1.002 0 0 1 .708.293L16 14.586l5.292-5.294A.991.991 0 0 1 22 8.999a1.002 1.002 0 0 1 .708 1.709L17.414 16l5.294 5.292a.991.991 0 0 1 .293.708 1.006 1.006 0 0 1-.618.925 1.006 1.006 0 0 1-1.091-.217L16 17.414l-5.292 5.294a.991.991 0 0 1-.708.293 1.006 1.006 0 0 1-.925-.618 1.01 1.01 0 0 1 0-.766c.05-.121.124-.232.217-.325L14.586 16l-5.294-5.292A.991.991 0 0 1 8.999 10a1.002 1.002 0 0 1 .293-.708z"/></symbol><symbol id="icon-check-circle" viewBox="0 0 32 32"><path d="M5 16a10.998 10.998 0 0 1 16.499-9.528 1.003 1.003 0 0 0 1.36-.369 1.003 1.003 0 0 0-.36-1.363A12.995 12.995 0 0 0 6.807 6.806 13.005 13.005 0 0 0 4.74 22.498a13.001 13.001 0 0 0 21.571 1.416 13 13 0 0 0 2.687-7.913.997.997 0 0 0-1-1 .997.997 0 0 0-1 1 11 11 0 0 1-22 0z"/><path d="M30.708 6.708A.991.991 0 0 0 31.001 6a1.006 1.006 0 0 0-.618-.925 1.006 1.006 0 0 0-1.091.217L16 18.586l-5.292-5.294a.991.991 0 0 0-.708-.293 1.002 1.002 0 0 0-.708 1.709l6 6a.991.991 0 0 0 .708.293 1.002 1.002 0 0 0 .708-.293l14-14z"/></symbol><symbol id="icon-alert-gem" viewBox="0 0 32 32"><path d="M6.2 1.4A.995.995 0 0 1 7 1h18a.993.993 0 0 1 .8.4l5.952 7.948c.298.37.312.9.02 1.288L16.8 30.6a.995.995 0 0 1-.8.4.993.993 0 0 1-.8-.4l-15-20a1 1 0 0 1 0-1.2l6-8zm22.772 7.57L25.36 4.15l-1.552 4.826 5.164-.006zm-7.266.008L23.628 3H8.372l1.926 5.99 11.408-.012zM10.94 10.99 16 26.732l5.064-15.752-10.124.01zM8.198 8.992l-1.56-4.844-3.636 4.85 5.196-.006zM2.998 11l10.226 13.634-4.384-13.64L2.998 11zm15.778 13.634 10.246-13.66-5.856.004-4.39 13.656z"/></symbol><symbol id="icon-gear" viewBox="0 0 32 32"><path d="M16 9.508a6.49 6.49 0 1 0 6.492 6.49A6.49 6.49 0 0 0 16 9.506zM11.508 16A4.489 4.489 0 0 1 16 11.508 4.489 4.489 0 0 1 20.492 16 4.489 4.489 0 0 1 16 20.492 4.489 4.489 0 0 1 11.508 16z"/><path d="M19.592 2.686c-1.054-3.58-6.13-3.58-7.184 0l-.188.638a1.754 1.754 0 0 1-1.006 1.12 1.756 1.756 0 0 1-1.504-.079l-.584-.32c-3.28-1.784-6.866 1.804-5.08 5.082l.318.584a1.746 1.746 0 0 1-1.041 2.51l-.638.188c-3.58 1.054-3.58 6.13 0 7.184l.638.188a1.754 1.754 0 0 1 1.12 1.006 1.756 1.756 0 0 1-.079 1.504l-.32.584c-1.784 3.28 1.802 6.868 5.082 5.08l.584-.318a1.746 1.746 0 0 1 2.51 1.04l.188.638c1.054 3.58 6.13 3.58 7.184 0l.188-.638a1.754 1.754 0 0 1 1.006-1.12 1.74 1.74 0 0 1 1.504.08l.584.32c3.28 1.786 6.868-1.804 5.08-5.082l-.318-.584a1.746 1.746 0 0 1 1.04-2.51l.638-.188c3.58-1.054 3.58-6.13 0-7.184l-.638-.188a1.754 1.754 0 0 1-1.12-1.006 1.74 1.74 0 0 1 .08-1.504l.32-.584c1.786-3.28-1.804-6.866-5.082-5.08l-.584.318a1.746 1.746 0 0 1-2.51-1.041l-.188-.638zm-5.266.566c.492-1.67 2.856-1.67 3.348 0l.188.638a3.748 3.748 0 0 0 5.385 2.23l.582-.32c1.528-.83 3.2.84 2.368 2.37l-.318.584a3.756 3.756 0 0 0-.171 3.225 3.738 3.738 0 0 0 2.402 2.159l.636.188c1.67.492 1.67 2.856 0 3.348l-.638.188a3.748 3.748 0 0 0-2.23 5.385l.32.582c.83 1.528-.84 3.2-2.37 2.368l-.582-.318a3.76 3.76 0 0 0-3.227-.171 3.75 3.75 0 0 0-2.159 2.403l-.188.636c-.492 1.67-2.856 1.67-3.348 0l-.188-.638a3.737 3.737 0 0 0-2.16-2.401 3.755 3.755 0 0 0-3.225.171l-.584.32c-1.528.83-3.2-.84-2.368-2.37l.318-.582c.268-.491.423-1.036.452-1.594s-.066-1.116-.279-1.633a3.745 3.745 0 0 0-2.404-2.161l-.638-.188c-1.67-.492-1.67-2.856 0-3.348l.638-.188a3.742 3.742 0 0 0 2.229-5.382l-.32-.584c-.83-1.528.84-3.2 2.37-2.368l.584.318a3.756 3.756 0 0 0 3.225.171 3.748 3.748 0 0 0 2.16-2.401l.188-.638z"/></symbol><symbol id="icon-x-lg" viewBox="0 0 32 32"><path d="M4.292 5.708A.991.991 0 0 1 3.999 5a1.006 1.006 0 0 1 .618-.925 1.01 1.01 0 0 1 .766 0c.121.05.232.124.325.217L16 14.586 26.292 4.292A.991.991 0 0 1 27 3.999a1.006 1.006 0 0 1 .925.618 1.006 1.006 0 0 1-.217 1.091L17.414 16l10.294 10.292a.991.991 0 0 1 .293.708 1.006 1.006 0 0 1-.618.925 1.006 1.006 0 0 1-1.091-.217L16 17.414 5.708 27.708a.991.991 0 0 1-.708.293 1.006 1.006 0 0 1-.925-.618 1.006 1.006 0 0 1 .217-1.091L14.586 16 4.292 5.708z"/></symbol><symbol id="icon-arrow-clockwise" viewBox="0 0 32 32"><path d="M16 6a10.006 10.006 0 0 0-9.594 7.19 10.005 10.005 0 0 0 4.201 11.229 10.005 10.005 0 0 0 11.957-.871 10.003 10.003 0 0 0 2.528-11.719c-.098-.239-.1-.506-.006-.747s.279-.435.513-.542a.999.999 0 0 1 1.309.455 12 12 0 1 1-10.907-6.994v2z"/><path d="M16 8.932V1.068a.498.498 0 0 1 .82-.383l4.72 3.932a.5.5 0 0 1 0 .768l-4.72 3.932a.498.498 0 0 1-.82-.383z"/></symbol><symbol id="icon-journal-text" viewBox="0 0 32 32"><path d="M10 21a.997.997 0 0 1 1-1h4a.997.997 0 0 1 1 1 .997.997 0 0 1-1 1h-4a.997.997 0 0 1-1-1zm0-4a.997.997 0 0 1 1-1h10a.997.997 0 0 1 1 1 .997.997 0 0 1-1 1H11a.997.997 0 0 1-1-1zm0-4a.997.997 0 0 1 1-1h10a.997.997 0 0 1 1 1 .997.997 0 0 1-1 1H11a.997.997 0 0 1-1-1zm0-4a.997.997 0 0 1 1-1h10a.997.997 0 0 1 1 1 .997.997 0 0 1-1 1H11a.997.997 0 0 1-1-1z"/><path d="M6 0h20a4.003 4.003 0 0 1 4 4v24a4.003 4.003 0 0 1-4 4H6a4.003 4.003 0 0 1-4-4v-2h2v2a2 2 0 0 0 2 2h20a2 2 0 0 0 2-2V4a2 2 0 0 0-2-2H6a2 2 0 0 0-2 2v2H2V4a4.003 4.003 0 0 1 4-4z"/><path d="M2 10V9a.997.997 0 0 1 1-1 .997.997 0 0 1 1 1v1h1a.997.997 0 0 1 1 1 .997.997 0 0 1-1 1H1a.997.997 0 0 1-1-1 .997.997 0 0 1 1-1h1zm0 6v-1a.997.997 0 0 1 1-1 .997.997 0 0 1 1 1v1h1a.997.997 0 0 1 1 1 .997.997 0 0 1-1 1H1a.997.997 0 0 1-1-1 .997.997 0 0 1 1-1h1zm0 6v-1a.997.997 0 0 1 1-1 .997.997 0 0 1 1 1v1h1a.997.997 0 0 1 1 1 .997.997 0 0 1-1 1H1a.997.997 0 0 1-1-1 .997.997 0 0 1 1-1h1z"/></symbol><symbol id="icon-calendar-range" viewBox="0 0 32 32"><path d="M7 0a.997.997 0 0 1 1 1v1h16V1a.997.997 0 0 1 1-1 .997.997 0 0 1 1 1v1h2a4.003 4.003 0 0 1 4 4v22a4.003 4.003 0 0 1-4 4H4a4.003 4.003 0 0 1-4-4V6a4.003 4.003 0 0 1 4-4h2V1a.997.997 0 0 1 1-1zM4 4a2 2 0 0 0-2 2v2h28V6a2 2 0 0 0-2-2H4zm26 6H2v18a2 2 0 0 0 2 2h24a2 2 0 0 0 2-2V10z"/><path d="M18 15a.997.997 0 0 1 1-1h11v4H19a.997.997 0 0 1-1-1v-2zm-4 6v2a.997.997 0 0 1-1 1H2v-4h11a.997.997 0 0 1 1 1z"/></symbol><symbol id="icon-envelope" viewBox="0 0 32 32"><path d="M0 8a4.003 4.003 0 0 1 4-4h24a4.003 4.003 0 0 1 4 4v16a4.003 4.003 0 0 1-4 4H4a4.003 4.003 0 0 1-4-4V8zm4-2a2 2 0 0 0-2 2v.434l14 8.4 14-8.4V8a2 2 0 0 0-2-2H4zm26 4.766-9.416 5.65L30 22.21V10.766zm-.068 13.752-11.28-6.942L16 19.166l-2.652-1.59-11.28 6.94A2 2 0 0 0 4 26h24a2.003 2.003 0 0 0 1.932-1.482zM2 22.21l9.416-5.794L2 10.766V22.21z"/></symbol><symbol id="icon-clipboard-check" viewBox="0 0 32 32"><path d="M21.708 14.292a.991.991 0 0 1 .293.708 1.002 1.002 0 0 1-.293.708l-6 6a.991.991 0 0 1-.708.293 1.002 1.002 0 0 1-.708-.293l-3-3a.991.991 0 0 1-.293-.708 1.006 1.006 0 0 1 .293-.708 1 1 0 0 1 1.416 0L15 19.586l5.292-5.294a.991.991 0 0 1 .708-.293 1.006 1.006 0 0 1 .708.293z"/><path d="M8 3H6a4.003 4.003 0 0 0-4 4v21a4.003 4.003 0 0 0 4 4h20a4.003 4.003 0 0 0 4-4V7a4.003 4.003 0 0 0-4-4h-2v2h2a2 2 0 0 1 2 2v21a2 2 0 0 1-2 2H6a2 2 0 0 1-2-2V7a2 2 0 0 1 2-2h2V3z"/><path d="M19 2a.997.997 0 0 1 1 1v2a.997.997 0 0 1-1 1h-6a.997.997 0 0 1-1-1V3a.997.997 0 0 1 1-1h6zm-6-2a3.004 3.004 0 0 0-3 3v2a3.004 3.004 0 0 0 3 3h6a3.004 3.004 0 0 0 3-3V3a3.004 3.004 0 0 0-3-3h-6z"/></symbol><symbol id="icon-coin" viewBox="0 0 32 32"><path d="M11 19.022c.152 1.908 1.66 3.394 4.364 3.57V24h1.2v-1.418c2.8-.196 4.436-1.692 4.436-3.864 0-1.974-1.252-2.992-3.49-3.52l-.946-.224V11.14c1.2.136 1.964.792 2.148 1.7h2.104c-.152-1.838-1.728-3.276-4.252-3.432V8h-1.2v1.438c-2.39.234-4.02 1.672-4.02 3.706 0 1.8 1.212 2.944 3.226 3.414l.794.196v4.068c-1.23-.186-2.044-.86-2.228-1.8H11zm4.354-4.332c-1.18-.274-1.82-.832-1.82-1.672 0-.94.69-1.644 1.83-1.85v3.52l-.01.002zm1.384 2.386c1.434.332 2.096.87 2.096 1.82 0 1.084-.824 1.828-2.27 1.964v-3.824l.174.04z"/><path d="M16 30a14 14 0 1 1 0-28 14 14 0 0 1 0 28zm0 2a16.003 16.003 0 0 0 16-16A15.997 15.997 0 0 0 16 0 15.997 15.997 0 0 0 0 16a16.003 16.003 0 0 0 16 16z"/><path d="M16 27a11 11 0 1 1 0-22 11 11 0 0 1 0 22zm0 1a12 12 0 1 0 .002-24.003A12 12 0 0 0 16 28.002z"/></symbol><symbol id="icon-briefcase" viewBox="0 0 32 32"><path d="M13 2a3.004 3.004 0 0 0-3 3v1H3a3.004 3.004 0 0 0-3 3v16a3.004 3.004 0 0 0 3 3h26a3.004 3.004 0 0 0 3-3V9a3.004 3.004 0 0 0-3-3h-7V5a3.004 3.004 0 0 0-3-3h-6zm0 2h6a.997.997 0 0 1 1 1v1h-8V5a.997.997 0 0 1 1-1zm3.772 13.828L30 14.302V25a.997.997 0 0 1-1 1H3a.997.997 0 0 1-1-1V14.3l13.228 3.528a2.994 2.994 0 0 0 1.544 0zM3 8h26a.997.997 0 0 1 1 1v3.232l-13.742 3.664a1.003 1.003 0 0 1-.516 0L2 12.232V9a.997.997 0 0 1 1-1z"/></symbol><symbol id="icon-person-plus" viewBox="0 0 32 32"><path d="M12 16a5.996 5.996 0 0 0 6-6A6.002 6.002 0 0 0 7.757 5.757 6 6 0 0 0 12 16zm4-6a4.003 4.003 0 0 1-4 4 4.003 4.003 0 0 1-4-4 4.003 4.003 0 0 1 4-4 4.003 4.003 0 0 1 4 4zm8 16c0 2-2 2-2 2H2s-2 0-2-2 2-8 12-8 12 6 12 8zm-2-.008c-.002-.492-.308-1.972-1.664-3.328C19.032 21.36 16.578 20 12 20c-4.58 0-7.032 1.36-8.336 2.664C2.308 24.02 2.004 25.5 2 25.992h20zM27 10a.997.997 0 0 1 1 1v3h3a.997.997 0 0 1 1 1 .997.997 0 0 1-1 1h-3v3a.997.997 0 0 1-1 1 .997.997 0 0 1-1-1v-3h-3a.997.997 0 0 1-1-1 .997.997 0 0 1 1-1h3v-3a.997.997 0 0 1 1-1z"/></symbol><symbol id="icon-columns-gap" viewBox="0 0 32 32"><path d="M12 2v6H2V2h10zM2 0a2 2 0 0 0-2 2v6a2 2 0 0 0 2 2h10a2 2 0 0 0 2-2V2a2 2 0 0 0-2-2H2zm28 24v6H20v-6h10zm-10-2a2 2 0 0 0-2 2v6a2 2 0 0 0 2 2h10a2 2 0 0 0 2-2v-6a2 2 0 0 0-2-2H20zm-8-6v14H2V16h10zM2 14a2 2 0 0 0-2 2v14a2 2 0 0 0 2 2h10a2 2 0 0 0 2-2V16a2 2 0 0 0-2-2H2zM30 2v14H20V2h10zM20 0a2 2 0 0 0-2 2v14a2 2 0 0 0 2 2h10a2 2 0 0 0 2-2V2a2 2 0 0 0-2-2H20z"/></symbol><symbol id="icon-burger-menu" viewBox="0 0 32 32"><path d="M4 25a.997.997 0 0 1 1-1h22a.997.997 0 0 1 1 1 .997.997 0 0 1-1 1H5a.997.997 0 0 1-1-1zm0-6a.997.997 0 0 1 1-1h22a.997.997 0 0 1 1 1 .997.997 0 0 1-1 1H5a.997.997 0 0 1-1-1zm0-6a.997.997 0 0 1 1-1h22a.997.997 0 0 1 1 1 .997.997 0 0 1-1 1H5a.997.997 0 0 1-1-1zm0-6a.997.997 0 0 1 1-1h22a.997.997 0 0 1 1 1 .997.997 0 0 1-1 1H5a.997.997 0 0 1-1-1z"/></symbol><symbol id="icon-search" viewBox="0 0 32 32"><path d="M23.484 20.688a13 13 0 1 0-2.794 2.796h-.002c.06.08.124.156.196.23l7.7 7.7a2 2 0 0 0 2.83-2.828l-7.7-7.7a2.069 2.069 0 0 0-.23-.198zM24 13a10.998 10.998 0 0 1-18.778 7.779A10.988 10.988 0 0 1 2 13a11 11 0 0 1 22 0z"/></symbol><symbol id="icon-bell" viewBox="0 0 32 32"><path d="M16 32a4.003 4.003 0 0 0 4-4h-8a4.003 4.003 0 0 0 4 4zm0-28.164-1.594.322A8.005 8.005 0 0 0 8 12c0 1.256-.268 4.394-.918 7.484-.32 1.534-.752 3.132-1.326 4.516h20.488c-.574-1.384-1.004-2.98-1.326-4.516C24.268 16.394 24 13.256 24 12a7.998 7.998 0 0 0-6.406-7.84L16 3.836zM28.44 24c.446.894.962 1.602 1.56 2H2c.598-.398 1.114-1.106 1.56-2C5.36 20.4 6 13.76 6 12c0-4.84 3.44-8.88 8.01-9.802a2 2 0 1 1 3.98 0A10.002 10.002 0 0 1 26 12c0 1.76.64 8.4 2.44 12z"/></symbol><symbol id="icon-arcticons_thunder" viewBox="0 0 32 32"><path stroke-linecap="round" stroke-linejoin="round" stroke-width="0.6154" d="M11.105 27.17c1.754-1.103 2.945-4.855.685-6.823l-5.275 7.735c-.427.624-.2 1.289 1.13.67l13.127-6.117a2.152 2.152 0 0 0 1.001-2.879l-.004-.008-4.56-9.85c-.547-1.126.323-2.903 1.924-4.209m1.761-.859c-1.753 1.103-2.945 4.855-.685 6.823l5.275-7.735c.427-.624.2-1.289-1.13-.67L11.227 9.365a2.152 2.152 0 0 0-1.001 2.879l.004.008 4.56 9.85c.547 1.126-.323 2.903-1.924 4.21"/></symbol><symbol id="icon-system-uicons_diamond" viewBox="0 0 32 32"><path stroke-linecap="round" stroke-linejoin="round" stroke-width="0.6154" d="m28.19 12.19-4.571-6.095H8.395L3.81 12.19m24.38 0L16 27.428M28.19 12.19H3.809M16 27.429 3.809 12.191M16 27.429l-4.571-15.238M16 27.429l4.571-15.238"/><path stroke-linecap="round" stroke-linejoin="round" stroke-width="0.6154" d="m8.395 6.095 3.034 6.095L16 6.095l4.571 6.095 3.048-6.095"/></symbol><symbol id="icon-companies-arrow" viewBox="0 0 32 32"><path d="M15.998.429C13.169 4.986 6.956 12.431 1.662 16.153v5.056c5.077-3.72 10.048-8.845 13.436-13.928L16 5.928l.902 1.354c3.378 5.066 8.408 10.161 13.436 13.905V16.16C24.948 12.438 18.805 4.981 15.998.43zm0 10.362c-2.829 4.557-9.042 12.002-14.336 15.725v5.055c5.077-3.72 10.048-8.845 13.436-13.928L16 16.29l.902 1.353c3.378 5.066 8.408 10.161 13.436 13.905v-5.027c-5.39-3.722-11.533-11.179-14.34-15.73z"/></symbol><symbol id="icon-eternity" viewBox="0 0 32 32"><path d="M31.544 19.011c0 2.226-.434 4.122-1.255 5.484-.996 1.653-2.543 2.527-4.477 2.527-3.779 0-6.542-5.159-9.467-10.622-2.445-4.558-5.213-9.726-7.975-9.726-3.29 0-6.217 6.9-6.217 12.337 0 1.918.35 3.51 1.012 4.609.692 1.147 1.682 1.706 3.024 1.706 2.283 0 4.566-3.541 6.5-7.004a.847.847 0 0 1 1.475.825c-2.12 3.81-4.663 7.875-7.975 7.875-1.932 0-3.48-.873-4.477-2.527C.891 23.133.457 21.236.457 19.011c0-5.721 3.082-14.033 7.913-14.033 3.778 0 6.542 5.159 9.467 10.622 2.443 4.558 5.211 9.726 7.975 9.726 1.342 0 2.332-.558 3.024-1.706.661-1.099 1.012-2.692 1.012-4.609 0-5.437-2.926-12.337-6.217-12.337-1.272 0-2.672 1.097-4.259 3.353a.85.85 0 0 1-1.388-.976c1.231-1.748 3.155-4.072 5.647-4.072 4.831 0 7.913 8.312 7.913 14.033z"/></symbol><symbol id="icon-companies-poligon" viewBox="0 0 32 32"><path d="m16.831 8.461 8.085 5.118-1.508 1.097-7.473-4.73-7.4 4.729-1.498-1.101 7.997-5.108a1.674 1.674 0 0 1 1.797-.004z"/><path d="m1.124 13.325 13.819 10.148a1.668 1.668 0 0 0 1.981.004L30.87 13.328c1.012-.737.964-2.305-.091-2.973L16.832 1.526a1.667 1.667 0 0 0-1.797.004L1.217 10.36c-1.047.668-1.095 2.227-.092 2.964zm1.025-1.505 13.786-8.808 13.921 8.814c.007.014.01.029.01.044a.1.1 0 0 1-.011.052l-.006.005-13.914 10.124L2.149 11.927l-.006-.005-.003-.005c-.006-.015-.009-.031-.008-.047s.004-.03.01-.044l.001-.003.004-.003z"/><path d="m2.339 16.576 1.498 1.101-1.687 1.077a.008.008 0 0 0-.004.004l-.001.003a.094.094 0 0 0-.01.043.1.1 0 0 0 .01.051l.001.002.006.005 13.786 10.124 13.923-10.133a.123.123 0 0 0-.002-.092l-.001-.003-.004-.003-1.716-1.087 1.508-1.096 1.135.718c1.055.667 1.103 2.236.091 2.973L16.926 30.411a1.67 1.67 0 0 1-1.981-.004L1.126 20.258c-1.004-.737-.955-2.295.092-2.964l1.123-.718z"/></symbol><symbol id="icon-companies-sass" viewBox="0 0 32 32"><path d="M31.986 20.504c-.092-.745-.469-1.391-1.125-1.923a.172.172 0 0 0-.027-.027l-.033-.024-.011-.008-.404-.29a.239.239 0 0 0-.052-.022c-1.101-.656-2.924-1.115-5.714-.131-.666-1.12-.741-2.018-.296-3.393.079-.239.006-.398-.232-.5-.478-.203-1.131-.099-1.595.023-.216.056-.346.179-.387.364-.294 1.375-1.148 2.631-1.973 3.844l-.049.071c-.509-1.079-.403-1.914-.049-2.961.071-.209.015-.348-.181-.451-.546-.282-1.366-.088-1.692.008-.414.121-.857 1.239-1.353 2.578-.125.337-.233.625-.297.759-.153.313-.299.669-.454 1.047-.35.856-.744 1.819-1.308 2.424-.205-.453.118-1.168.431-1.861.371-.819.721-1.594.317-2.088a.727.727 0 0 0-.52-.27.816.816 0 0 0-.384.063c.042-.353.044-.632-.059-.969-.148-.481-.531-.75-1.058-.736-1.201.035-2.218.93-2.859 1.675-.428.5-1.375.881-2.207 1.216-.329.139-.641.264-.902.389-.416-.351-.944-.706-1.5-1.08-1.563-1.049-3.333-2.238-3.394-3.851-.087-2.382 2.625-4.071 4.992-5.277 1.794-.912 3.354-1.517 4.769-1.848 1.988-.464 3.666-.371 4.989.277.724.354 1.062 1.125.847 1.918-.562 2.059-2.893 3.471-4.886 4.106-1.201.383-2.223.543-3.125.49-1.131-.066-2.055-.633-2.45-.875a1.353 1.353 0 0 0-.2-.113l-.018-.004a.202.202 0 0 0-.2.062c-.081.097-.053.25-.023.328.384 1.004 1.178 1.639 2.359 1.886.386.077.78.115 1.174.112 2.763 0 6.289-1.593 7.584-2.905.883-.894 1.526-1.813 1.793-3.397.278-1.659-.847-2.813-1.993-3.344-2.786-1.286-5.949-.777-8.113-.125-2.531.763-5.15 2.151-7.184 3.808C.427 11.521-.48 13.416.239 15.12c.738 1.746 2.538 2.837 4.279 3.894.563.341 1.098.665 1.579 1-.145.071-.293.142-.444.214-1.461.708-3.119 1.505-4.038 2.822-.667.959-.792 1.914-.371 2.839.225.492.625.826 1.181.992.289.082.588.122.889.118 1.082 0 2.272-.438 2.921-.842 1.145-.719 1.887-1.684 2.206-2.868.284-1.054.216-2.101-.197-3.035l1.403-.707c-.677 2.25-.158 3.594.412 4.335.21.273.589.438 1.012.445s.813-.152 1.033-.423c.416-.516.724-1.119 1.007-1.722-.015.394.004.793.138 1.131.121.304.319.506.576.584.273.083.592.013.899-.197 1.386-.948 2.333-3.224 3.094-5.053.108-.26.212-.51.313-.744.188.674.45 1.325.781 1.942.074.134.067.192-.032.303-.151.165-.361.364-.583.576-.674.639-1.512 1.437-1.625 2.139-.044.281.15.538.451.596.904.18 1.994-.083 2.915-.703.837-.562 1.152-1.347.937-2.324-.208-.941.267-2.11 1.412-3.476.188.783.438 1.416.783 1.971l-.009.008c-.834.728-1.976 1.725-1.799 2.934a.837.837 0 0 0 .349.576.88.88 0 0 0 .7.128c1.092-.229 1.914-.691 2.511-1.411s.379-1.517.178-2.136c1.563-.424 2.954-.413 4.256.031.731.25 1.256.661 1.558 1.227.381.713.175 1.371-.581 1.853-.232.148-.344.239-.351.353a.162.162 0 0 0 .062.139c.087.072.357.197.968-.188.563-.353.892-.834.977-1.437a2.397 2.397 0 0 0-.001-.501zM7.003 22.071l-.006.08c-.098.915-.563 1.713-1.384 2.375-.516.416-1.077.672-1.578.721-.35.034-.604-.014-.756-.142-.113-.096-.174-.239-.188-.438-.103-1.593 2.395-3.175 3.801-3.696.1.357.138.729.111 1.099zm6.397-4.492c-.231 1.318-.906 3.806-1.966 4.772-.051.046-.093.062-.113.058s-.034-.027-.05-.063c-.354-.82-.223-2.205.313-3.293.412-.839 1-1.394 1.658-1.562a.294.294 0 0 1 .084-.012.092.092 0 0 1 .062.017c.008.012.013.026.015.04s.001.029-.003.043zm5.218 4.805c-.199.208-.473.18-.408.104l1.015-1.078c-.082.371-.324.678-.607.974zm4.211-.931a.876.876 0 0 1-.308.087c-.029-.567.521-1.205 1.062-1.631.146.591-.152 1.216-.754 1.544z"/></symbol><symbol id="icon-geo-alt-fill" viewBox="0 0 32 32"><path d="M16 32s12-11.372 12-20A12.003 12.003 0 0 0 16 0 12.003 12.003 0 0 0 4 12c0 8.628 12 20 12 20zm0-14a5.996 5.996 0 0 1-6-6 6.002 6.002 0 0 1 10.243-4.243A6 6 0 0 1 16 18z"/></symbol><symbol id="icon-plus" viewBox="0 0 32 32"><path d="M16 8a.997.997 0 0 1 1 1v6h6a.997.997 0 0 1 1 1 .997.997 0 0 1-1 1h-6v6a.997.997 0 0 1-1 1 .997.997 0 0 1-1-1v-6H9a.997.997 0 0 1-1-1 .997.997 0 0 1 1-1h6V9a.997.997 0 0 1 1-1z"/></symbol><symbol id="icon-dash" viewBox="0 0 32 32"><path d="M8 16a.997.997 0 0 1 1-1h14a.997.997 0 0 1 1 1 .997.997 0 0 1-1 1H9a.997.997 0 0 1-1-1z"/></symbol><symbol id="icon-done" viewBox="0 0 32 32"><path d="M27.708 7.292a.991.991 0 0 1 .293.708 1.006 1.006 0 0 1-.293.708l-14 14a.991.991 0 0 1-.708.293 1.002 1.002 0 0 1-.708-.293l-7-7A1 1 0 0 1 6 13.999a1 1 0 0 1 .708.293L13 20.586 26.292 7.292A.991.991 0 0 1 27 6.999a1.002 1.002 0 0 1 .708.293z"/></symbol><symbol id="icon-chevron-down" viewBox="0 0 32 32"><path d="M3.292 9.292A.991.991 0 0 1 4 8.999a1.002 1.002 0 0 1 .708.293L16 20.586 27.292 9.292A.991.991 0 0 1 28 8.999a1.006 1.006 0 0 1 .925.618 1.006 1.006 0 0 1-.217 1.091l-12 12a.991.991 0 0 1-.708.293 1.002 1.002 0 0 1-.708-.293l-12-12A.991.991 0 0 1 2.999 10a1.002 1.002 0 0 1 .293-.708z"/></symbol><symbol id="icon-chevron-up" viewBox="0 0 32 32"><path d="M15.292 9.292A.991.991 0 0 1 16 8.999a1.002 1.002 0 0 1 .708.293l12 12A1 1 0 0 1 28 23.001a1 1 0 0 1-.708-.293L16 11.414 4.708 22.708A1 1 0 0 1 2.999 22c0-.266.106-.52.293-.708l12-12z"/></symbol><symbol id="icon-cat" viewBox="0 0 32 32"><path fill="#1c1c24" d="M2.555 10.693S2.081 1.881 3.996 1.44s5.218 2.721 5.218 2.721l-6.659 6.532zm18.087-6.317s3.535-3.52 6.041-2.934c2.504.586.59 7.545.59 7.545l-6.631-4.611z" style="fill:var(--color1, #1c1c24)"/><path fill="#f07f2e" stroke="#1c1c24" stroke-miterlimit="10" stroke-width="0.5333" d="M27.558 26.809c-2.653 2.097-4.428 2.782-7.444 3.598-2.013.545-7.083.517-11.808-1.384-3.31-1.448-4.607-3.022-5.232-3.88-.544-.746-1.65-2.402-1.713-4.214-.092-2.637-.015-5.21 1.196-10.232 1.211-5.024 6.659-6.532 6.659-6.532 5.953-1.406 10.897-.301 12.612 0s6.589 3.387 7.008 9.571c.064.925 1.1 4.214 1.2 6.977.03.847.055 1.975-.367 3.133-.487 1.335-1.573 2.513-2.11 2.963z" style="fill:var(--color2, #f07f2e);stroke:var(--color1, #1c1c24)"/><path fill="#1c1c24" d="M11.148 14.33c.042-.079.09-.155.142-.23l.075-.107.044-.057a3.146 3.146 0 0 1 .351-.363c.016-.014.095-.077.033-.029s.028-.019.048-.033a1.56 1.56 0 0 1 .157-.095c.026-.014.055-.026.083-.04.055-.028-.098.031.009-.002a2.22 2.22 0 0 1 .178-.047c.079-.02-.101.003-.019.003.036 0 .072-.005.109-.003.033 0 .065.006.097.006.059 0-.095-.026-.039-.005.012.005.03.005.044.009.034.009.069.017.101.028l.044.015c.092.026-.053-.034-.008-.003.076.051.165.09.243.141l.047.034c-.075-.057 0 .001.014.015.042.039.086.076.126.116.209.208.336.389.495.645a.479.479 0 0 0 .639.168c.213-.124.301-.422.168-.636-.5-.802-1.259-1.613-2.297-1.432-.623.109-1.111.599-1.468 1.088-.081.11-.159.225-.223.344a.474.474 0 0 0 .168.636c.21.119.52.053.639-.169zm13.653-.665a2.59 2.59 0 0 1 .207-.322l.041-.056c.034-.047-.078.095-.008.012a3.25 3.25 0 0 1 .217-.239c.04-.04.083-.079.126-.115.016-.014.093-.076.03-.026s.023-.017.044-.03c.048-.033.098-.064.15-.092l.078-.039c.055-.028-.103.033.005 0 .056-.017.114-.031.171-.045.078-.019-.104.005-.023.003.034 0 .069-.005.104-.003.031 0 .062.006.094.006.059 0-.098-.026-.044-.005.013.005.028.005.041.008l.097.026c.014.005.028.011.042.014.09.026-.056-.036-.012-.006.073.05.157.085.232.137l.044.033c-.079-.06-.006-.003.009.011.041.037.083.073.121.112.204.203.313.362.472.614a.479.479 0 0 0 .639.168c.213-.124.301-.422.168-.636-.485-.776-1.218-1.556-2.222-1.381-.603.105-1.072.579-1.418 1.05a2.81 2.81 0 0 0-.213.33.474.474 0 0 0 .168.636c.213.124.523.057.642-.166z" style="fill:var(--color1, #1c1c24)"/><path fill="none" stroke="#1c1c24" stroke-miterlimit="10" stroke-width="0.5333" d="m14.163 18.362-4.835-.155m4.915 1.814-4.197.621m16.852-2.996 4.835-.155M26.82 19.3l4.197.619m-11.035-.405s2.339 3.224 4.317-.059m-2.139-2.35v3.641" style="stroke:var(--color1, #1c1c24)"/><path fill="#1c1c24" d="M22.117 17.269c.979 0 1.773-.557 1.773-1.244s-.794-1.244-1.773-1.244c-.979 0-1.773.557-1.773 1.244s.794 1.244 1.773 1.244z" style="fill:var(--color1, #1c1c24)"/><path fill="#1c1c24" stroke="#1c1c24" stroke-miterlimit="10" stroke-width="0.5333" d="M6.587 15.508c1.572-1.621-3.453-5.024-3.823-5.169-.016-.006-1.429 6.361-1.356 10.195.017.895.187 1.827.187 1.827.294.261.487 1.1 2.69.028 1.232-.6 1.475-1.823.354-2.059-2.158-.451.006-.932-.347-1.786-.893-2.153.643-1.331 2.297-3.036zm21.348 6.324c.182-1.907 1.972-1.369 1.972-1.369.596 3.481-1.487 5.845-2.989 6.672-.365 0-.714-2.128.106-2.399s.729-.998.911-2.904z" style="fill:var(--color1, #1c1c24);stroke:var(--color1, #1c1c24)"/></symbol></defs></svg>